# Created by FreeCAD <https://www.freecad.org>
v 96.903114 648.640869 -217.979095
v 96.270554 648.670166 -217.979095
v 96.903114 648.640869 -160.190857
v 96.270554 648.670166 -160.190857
v 95.640244 648.730957 -217.979095
v 95.640244 648.730957 -160.190857
v 95.013741 648.823120 -217.979095
v 95.013741 648.823120 -160.190857
v 94.392616 648.946411 -217.979095
v 94.392616 648.946411 -160.190857
v 93.778404 649.100464 -217.979095
v 93.778404 649.100464 -160.190857
v 93.172638 649.284912 -217.979095
v 93.172638 649.284912 -160.190857
v 92.576820 649.499451 -217.979095
v 92.576820 649.499451 -160.190857
v 91.992439 649.743286 -217.979095
v 91.992439 649.743286 -160.190857
v 91.420937 650.016052 -217.979095
v 91.420937 650.016052 -160.190857
v 90.863739 650.316895 -217.979095
v 90.863739 650.316895 -160.190857
v 90.322220 650.645203 -217.979095
v 90.322220 650.645203 -160.190857
v 89.797752 651.000061 -217.979095
v 89.797752 651.000061 -160.190857
v 89.291618 651.380554 -217.979095
v 89.291618 651.380554 -160.190857
v 88.805084 651.785889 -217.979095
v 88.805084 651.785889 -160.190857
v 88.339363 652.214966 -217.979095
v 88.339363 652.214966 -160.190857
v 87.895599 652.666687 -217.979095
v 87.895599 652.666687 -160.190857
v 87.474899 653.140015 -217.979095
v 87.474899 653.140015 -160.190857
v 87.078323 653.633667 -217.979095
v 87.078323 653.633667 -160.190857
v 86.706848 654.146484 -217.979095
v 86.706848 654.146484 -160.190857
v 86.361397 654.677246 -217.979095
v 86.361397 654.677246 -160.190857
v 86.042831 655.224487 -217.979095
v 86.042831 655.224487 -160.190857
v 85.751938 655.786926 -217.979095
v 85.751938 655.786926 -160.190857
v 85.489441 656.363220 -217.979095
v 85.489441 656.363220 -160.190857
v 85.255997 656.951843 -217.979095
v 85.255997 656.951843 -160.190857
v 85.052177 657.551392 -217.979095
v 85.052177 657.551392 -160.190857
v 84.878510 658.160339 -217.979095
v 84.878510 658.160339 -160.190857
v 84.735405 658.777283 -217.979095
v 84.735405 658.777283 -160.190857
v 84.623222 659.400452 -217.979095
v 84.623222 659.400452 -160.190857
v 84.542244 660.028503 -217.979095
v 84.542244 660.028503 -160.190857
v 84.492676 660.659790 -217.979095
v 84.492676 660.659790 -160.190857
v 84.474640 661.292786 -217.979095
v 84.474640 661.292786 -160.190857
v 84.488174 661.925842 -217.979095
v 84.488174 661.925842 -160.190857
v 84.533249 662.557556 -217.979095
v 84.533249 662.557556 -160.190857
v 84.609749 663.186096 -217.979095
v 84.609749 663.186096 -160.190857
v 84.717499 663.810120 -217.979095
v 84.717499 663.810120 -160.190857
v 84.856209 664.427917 -217.979095
v 84.856209 664.427917 -160.190857
v 85.025543 665.038147 -217.979095
v 85.025543 665.038147 -160.190857
v 85.225082 665.639160 -217.979095
v 85.225082 665.639160 -160.190857
v 85.454338 666.229431 -217.979095
v 85.454338 666.229431 -160.190857
v 85.712723 666.807495 -217.979095
v 85.712723 666.807495 -160.190857
v 85.999611 667.372070 -217.979095
v 85.999611 667.372070 -160.190857
v 86.314278 667.921570 -217.979095
v 86.314278 667.921570 -160.190857
v 86.655945 668.454712 -217.979095
v 86.655945 668.454712 -160.190857
v 87.023758 668.970215 -217.979095
v 87.023758 668.970215 -160.190857
v 87.416817 669.466736 -217.979095
v 87.416817 669.466736 -160.190857
v 87.834122 669.942932 -217.979095
v 87.834122 669.942932 -160.190857
v 88.274666 670.397888 -217.979095
v 88.274666 670.397888 -160.190857
v 88.737328 670.830200 -217.979095
v 88.737328 670.830200 -160.190857
v 89.220963 671.238953 -217.979095
v 89.220963 671.238953 -160.190857
v 89.724373 671.623169 -217.979095
v 89.724373 671.623169 -160.190857
v 90.246307 671.981689 -217.979095
v 90.246307 671.981689 -160.190857
v 90.785469 672.313843 -217.979095
v 90.785469 672.313843 -160.190857
v 91.340515 672.618652 -217.979095
v 91.340515 672.618652 -160.190857
v 91.910065 672.895447 -217.979095
v 91.910065 672.895447 -160.190857
v 92.492699 673.143494 -217.979095
v 92.492699 673.143494 -160.190857
v 93.086967 673.362183 -217.979095
v 93.086967 673.362183 -160.190857
v 93.691414 673.551025 -217.979095
v 93.691414 673.551025 -160.190857
v 94.304512 673.709412 -217.979095
v 94.304512 673.709412 -160.190857
v 94.924744 673.837097 -217.979095
v 94.924744 673.837097 -160.190857
v 95.550568 673.933716 -217.979095
v 95.550568 673.933716 -160.190857
v 96.180435 673.999023 -217.979095
v 96.180435 673.999023 -160.190857
v 96.812775 674.032776 -217.979095
v 96.812775 674.032776 -160.190857
v 97.446007 674.035095 -217.979095
v 97.446007 674.035095 -160.190857
v -416.217346 653.259216 -189.561234
v 24.292355 643.841736 -189.561234
v 24.292860 643.865417 -188.611664
v -416.216858 653.282837 -188.611664
v 24.294378 643.936401 -187.664459
v -416.215332 653.353821 -187.664459
v -416.212799 653.471924 -186.721985
v 24.296902 644.054443 -186.721985
v 24.300426 644.219360 -185.786545
v -416.209290 653.636780 -185.786545
v -416.204773 653.848083 -184.860504
v 24.304945 644.430664 -184.860504
v 24.310442 644.687866 -183.946152
v -416.199249 654.105286 -183.946152
v -416.192810 654.407776 -183.045746
v 24.316910 644.990356 -183.045746
v -416.185394 654.754700 -182.161545
v 24.324326 645.337219 -182.161545
v -416.177032 655.145264 -181.295746
v 24.332676 645.727844 -181.295746
v -416.167755 655.578552 -180.450500
v 24.341938 646.161072 -180.450500
v 24.352089 646.635925 -179.627899
v -416.157623 656.053345 -179.627899
v 24.363104 647.151123 -178.829987
v -416.146606 656.568542 -178.829987
v -416.134735 657.122925 -178.058762
v 24.374956 647.705505 -178.058762
v 24.387613 648.297546 -177.316132
v -416.122101 657.715027 -177.316132
v -416.108673 658.343384 -176.603943
v 24.401047 648.925903 -176.603943
v -416.094482 659.006470 -175.923965
v 24.415222 649.588989 -175.923965
v -416.079590 659.702576 -175.277908
v 24.430105 650.285156 -175.277908
v 24.445656 651.012573 -174.667343
v -416.064056 660.430054 -174.667343
v -416.047852 661.187073 -174.093811
v 24.461840 651.769592 -174.093811
v -416.031097 661.971680 -173.558746
v 24.478615 652.554199 -173.558746
v -416.013763 662.781982 -173.063446
v 24.495937 653.364502 -173.063446
v 24.513767 654.198547 -172.609177
v -415.995941 663.616028 -172.609177
v -415.977661 664.471619 -172.197052
v 24.532059 655.054138 -172.197052
v -415.958923 665.346680 -171.828094
v 24.550768 655.929260 -171.828094
v -415.939850 666.239014 -171.503220
v 24.569843 656.821533 -171.503220
v -415.920471 667.146545 -171.223236
v 24.589245 657.729065 -171.223236
v -415.900787 668.066772 -170.988861
v 24.608919 658.649353 -170.988861
v 24.628819 659.580139 -170.800644
v -415.880890 668.997620 -170.800644
v -415.860809 669.936584 -170.659073
v 24.648893 660.519165 -170.659073
v 24.669094 661.464111 -170.564499
v -415.840607 670.881592 -170.564499
v -415.820343 671.830017 -170.517151
v 24.689371 662.412537 -170.517151
v -415.800018 672.779602 -170.517151
v 24.709673 663.362183 -170.517151
v -415.779755 673.728088 -170.564499
v 24.729950 664.310608 -170.564499
v 24.750151 665.255615 -170.659073
v -415.759552 674.673035 -170.659073
v 24.770226 666.194580 -170.800644
v -415.739471 675.612061 -170.800644
v -415.719574 676.542847 -170.988861
v 24.790125 667.125427 -170.988861
v -415.699921 677.463135 -171.223236
v 24.809799 668.045654 -171.223236
v 24.829201 668.953186 -171.503220
v -415.680511 678.370667 -171.503220
v -415.661438 679.262939 -171.828094
v 24.848276 669.845520 -171.828094
v 24.866985 670.720581 -172.197052
v -415.642731 680.138062 -172.197052
v -415.624420 680.993652 -172.609177
v 24.885277 671.576172 -172.609177
v -415.606598 681.827698 -173.063446
v 24.903107 672.410217 -173.063446
v -415.589264 682.638000 -173.558746
v 24.920429 673.220520 -173.558746
v -415.572510 683.422607 -174.093811
v 24.937202 674.005127 -174.093811
v -415.556305 684.179626 -174.667343
v 24.953388 674.762146 -174.667343
v -415.540771 684.907043 -175.277908
v 24.968939 675.489624 -175.277908
v -415.525879 685.603149 -175.923965
v 24.983822 676.185730 -175.923965
v 24.997997 676.848816 -176.603943
v -415.511719 686.266296 -176.603943
v 25.011431 677.477173 -177.316132
v -415.498260 686.894653 -177.316132
v -415.485626 687.486694 -178.058762
v 25.024088 678.069275 -178.058762
v 25.035940 678.623657 -178.829987
v -415.473755 688.041077 -178.829987
v -415.462738 688.556274 -179.627899
v 25.046955 679.138855 -179.627899
v -415.452606 689.031128 -180.450500
v 25.057106 679.613647 -180.450500
v -415.443329 689.464355 -181.295746
v 25.066368 680.046875 -181.295746
v -415.434998 689.854980 -182.161545
v 25.074718 680.437500 -182.161545
v -415.427582 690.201843 -183.045746
v 25.082134 680.784424 -183.045746
v -415.421112 690.504333 -183.946152
v 25.088600 681.086914 -183.946152
v -415.415619 690.761536 -184.860504
v 25.094099 681.344116 -184.860504
v -415.411102 690.972839 -185.786545
v 25.098618 681.555420 -185.786545
v -415.407562 691.137756 -186.721985
v 25.102142 681.720276 -186.721985
v -415.405029 691.255798 -187.664459
v 25.104666 681.838379 -187.664459
v -415.403534 691.326782 -188.611664
v 25.106184 681.909302 -188.611664
v -415.403015 691.350464 -189.561234
v 25.106689 681.932983 -189.561234
v 98.078568 674.005737 -217.979095
v 98.078568 674.005737 -160.190857
v 98.708878 673.944946 -217.979095
v 98.708878 673.944946 -160.190857
v 99.335381 673.852783 -217.979095
v 99.335381 673.852783 -160.190857
v 99.956505 673.729492 -217.979095
v 99.956505 673.729492 -160.190857
v 100.570717 673.575500 -217.979095
v 100.570717 673.575500 -160.190857
v 101.176483 673.390991 -217.979095
v 101.176483 673.390991 -160.190857
v 101.772301 673.176453 -217.979095
v 101.772301 673.176453 -160.190857
v 102.356689 672.932617 -217.979095
v 102.356689 672.932617 -160.190857
v 102.928192 672.659912 -217.979095
v 102.928192 672.659912 -160.190857
v 103.485390 672.359009 -217.979095
v 103.485390 672.359009 -160.190857
v 104.026901 672.030762 -217.979095
v 104.026901 672.030762 -160.190857
v 104.551376 671.675903 -217.979095
v 104.551376 671.675903 -160.190857
v 105.057503 671.295349 -217.979095
v 105.057503 671.295349 -160.190857
v 105.544037 670.890015 -217.979095
v 105.544037 670.890015 -160.190857
v 106.009766 670.460938 -217.979095
v 106.009766 670.460938 -160.190857
v 106.453522 670.009216 -217.979095
v 106.453522 670.009216 -160.190857
v 106.874222 669.535889 -217.979095
v 106.874222 669.535889 -160.190857
v 107.270798 669.042236 -217.979095
v 107.270798 669.042236 -160.190857
v 107.642273 668.529419 -217.979095
v 107.642273 668.529419 -160.190857
v 107.987724 667.998657 -217.979095
v 107.987724 667.998657 -160.190857
v 108.306290 667.451416 -217.979095
v 108.306290 667.451416 -160.190857
v 108.597183 666.888977 -217.979095
v 108.597183 666.888977 -160.190857
v 108.859688 666.312683 -217.979095
v 108.859688 666.312683 -160.190857
v 109.093132 665.724060 -217.979095
v 109.093132 665.724060 -160.190857
v 109.296936 665.124512 -217.979095
v 109.296936 665.124512 -160.190857
v 109.470612 664.515564 -217.979095
v 109.470612 664.515564 -160.190857
v 109.613716 663.898682 -217.979095
v 109.613716 663.898682 -160.190857
v 109.725899 663.275452 -217.979095
v 109.725899 663.275452 -160.190857
v 109.806877 662.647400 -217.979095
v 109.806877 662.647400 -160.190857
v 109.856445 662.016174 -217.979095
v 109.856445 662.016174 -160.190857
v 109.874481 661.383118 -217.979095
v 109.874481 661.383118 -160.190857
v 109.860947 660.750061 -217.979095
v 109.860947 660.750061 -160.190857
v 109.815872 660.118408 -217.979095
v 109.815872 660.118408 -160.190857
v 109.739372 659.489807 -217.979095
v 109.739372 659.489807 -160.190857
v 109.631622 658.865845 -217.979095
v 109.631622 658.865845 -160.190857
v 109.492912 658.247986 -217.979095
v 109.492912 658.247986 -160.190857
v 109.323578 657.637756 -217.979095
v 109.323578 657.637756 -160.190857
v 109.124031 657.036804 -217.979095
v 109.124031 657.036804 -160.190857
v 108.894791 656.446533 -217.979095
v 108.894791 656.446533 -160.190857
v 108.636398 655.868408 -217.979095
v 108.636398 655.868408 -160.190857
v 108.349510 655.303833 -160.190857
v 108.349510 655.303833 -217.979095
v 108.034843 654.754333 -217.979095
v 108.034843 654.754333 -160.190857
v 107.693184 654.221191 -217.979095
v 107.693184 654.221191 -160.190857
v 107.325363 653.705688 -217.979095
v 107.325363 653.705688 -160.190857
v 106.932312 653.209229 -217.979095
v 106.932312 653.209229 -160.190857
v 106.514999 652.732971 -217.979095
v 106.514999 652.732971 -160.190857
v 106.074455 652.278076 -217.979095
v 106.074455 652.278076 -160.190857
v 105.611794 651.845703 -217.979095
v 105.611794 651.845703 -160.190857
v 105.128159 651.436951 -217.979095
v 105.128159 651.436951 -160.190857
v 104.624741 651.052795 -217.979095
v 104.624741 651.052795 -160.190857
v 104.102814 650.694214 -217.979095
v 104.102814 650.694214 -160.190857
v 103.563660 650.362122 -217.979095
v 103.563660 650.362122 -160.190857
v 103.008606 650.057251 -217.979095
v 103.008606 650.057251 -160.190857
v 102.439064 649.780457 -217.979095
v 102.439064 649.780457 -160.190857
v 101.856422 649.532410 -217.979095
v 101.856422 649.532410 -160.190857
v 101.262154 649.313782 -217.979095
v 101.262154 649.313782 -160.190857
v 100.657715 649.124939 -217.979095
v 100.657715 649.124939 -160.190857
v 100.044617 648.966492 -217.979095
v 100.044617 648.966492 -160.190857
v 99.424377 648.838867 -217.979095
v 99.424377 648.838867 -160.190857
v 98.798553 648.742188 -217.979095
v 98.798553 648.742188 -160.190857
v 98.168686 648.676941 -217.979095
v 98.168686 648.676941 -160.190857
v 97.536354 648.643127 -217.979095
v 97.536354 648.643127 -160.190857
v 23.918550 626.356750 -217.979095
v 95.063965 612.237732 -217.979095
v 25.480492 699.417908 -217.979095
v 96.123947 612.194397 -217.979095
v 98.574852 612.203125 -217.979095
v 101.022278 612.333984 -217.979095
v 103.460144 612.586731 -217.979095
v 105.882378 612.960632 -217.979095
v 108.282974 613.454834 -217.979095
v 110.655945 614.067993 -217.979095
v 112.995392 614.798828 -217.979095
v 115.295509 615.645203 -217.979095
v 117.550583 616.605286 -217.979095
v 119.754990 617.676514 -217.979095
v 121.903267 618.856323 -217.979095
v 123.990059 620.141846 -217.979095
v 126.010178 621.529663 -217.979095
v 127.958626 623.016479 -217.979095
v 129.830521 624.598572 -217.979095
v 131.621231 626.271973 -217.979095
v 133.326309 628.032654 -217.979095
v 134.941498 629.876038 -217.979095
v 136.462799 631.797668 -217.979095
v 137.886429 633.792725 -217.979095
v 139.208832 635.856323 -217.979095
v 140.426743 637.983215 -217.979095
v 141.537109 640.168213 -217.979095
v 142.537186 642.405823 -217.979095
v 143.424484 644.690491 -217.979095
v 144.196793 647.016541 -217.979095
v 144.852203 649.378174 -217.979095
v 145.389084 651.769592 -217.979095
v 145.806091 654.184814 -217.979095
v 146.102203 656.617798 -217.979095
v 146.276657 659.062500 -217.979095
v 97.399719 710.519836 -217.979095
v 98.225182 710.481506 -217.979095
v 146.329041 661.512878 -217.979095
v 100.673477 710.368042 -217.979095
v 146.259232 663.962769 -217.979095
v 103.113075 710.132690 -217.979095
v 146.067368 666.406189 -217.979095
v 105.537910 709.776062 -217.979095
v 145.753967 668.836975 -217.979095
v 107.941956 709.298950 -217.979095
v 145.319778 671.249146 -217.979095
v 110.319229 708.702576 -217.979095
v 144.765900 673.636658 -217.979095
v 112.663826 707.988586 -217.979095
v 144.093689 675.993652 -217.979095
v 114.969910 707.158447 -217.979095
v 143.304855 678.314087 -217.979095
v 117.231750 706.214478 -217.979095
v 142.401321 680.592407 -217.979095
v 119.443733 705.158936 -217.979095
v 141.385345 682.822876 -217.979095
v 121.600342 703.994446 -217.979095
v 140.259445 684.999878 -217.979095
v 123.696236 702.723938 -217.979095
v 139.026443 687.118103 -217.979095
v 125.726181 701.350464 -217.979095
v 137.689377 689.172180 -217.979095
v 127.685143 699.877502 -217.979095
v 136.251602 691.157104 -217.979095
v 129.568268 698.308838 -217.979095
v 134.716675 693.067810 -217.979095
v 131.370834 696.648132 -217.979095
v 133.088394 694.899719 -217.979095
v 23.918550 626.356750 -160.190857
v 95.063965 612.237732 -160.190857
v 25.480492 699.417908 -160.190857
v 96.123947 612.194397 -160.190857
v 98.574852 612.203125 -160.190857
v 101.022278 612.333984 -160.190857
v 103.460144 612.586731 -160.190857
v 105.882378 612.960632 -160.190857
v 108.282974 613.454834 -160.190857
v 110.655945 614.067993 -160.190857
v 112.995392 614.798828 -160.190857
v 115.295509 615.645203 -160.190857
v 117.550583 616.605286 -160.190857
v 119.754990 617.676514 -160.190857
v 121.903267 618.856323 -160.190857
v 123.990059 620.141846 -160.190857
v 126.010178 621.529663 -160.190857
v 127.958626 623.016479 -160.190857
v 129.830521 624.598572 -160.190857
v 131.621231 626.271973 -160.190857
v 133.326309 628.032654 -160.190857
v 134.941498 629.876038 -160.190857
v 136.462799 631.797668 -160.190857
v 137.886429 633.792725 -160.190857
v 139.208832 635.856323 -160.190857
v 140.426743 637.983215 -160.190857
v 141.537109 640.168213 -160.190857
v 142.537186 642.405823 -160.190857
v 143.424484 644.690491 -160.190857
v 144.196793 647.016541 -160.190857
v 144.852203 649.378174 -160.190857
v 145.389084 651.769592 -160.190857
v 145.806091 654.184814 -160.190857
v 146.102203 656.617798 -160.190857
v 146.276657 659.062500 -160.190857
v 97.399719 710.519836 -160.190857
v 98.225182 710.481506 -160.190857
v 146.329041 661.512878 -160.190857
v 100.673477 710.368042 -160.190857
v 146.259232 663.962769 -160.190857
v 103.113075 710.132690 -160.190857
v 146.067368 666.406189 -160.190857
v 105.537910 709.776062 -160.190857
v 145.753967 668.836975 -160.190857
v 107.941956 709.298950 -160.190857
v 145.319778 671.249146 -160.190857
v 110.319229 708.702576 -160.190857
v 144.765900 673.636658 -160.190857
v 112.663826 707.988586 -160.190857
v 144.093689 675.993652 -160.190857
v 114.969910 707.158447 -160.190857
v 143.304855 678.314087 -160.190857
v 117.231750 706.214478 -160.190857
v 142.401321 680.592407 -160.190857
v 119.443733 705.158936 -160.190857
v 141.385345 682.822876 -160.190857
v 121.600342 703.994446 -160.190857
v 140.259445 684.999878 -160.190857
v 123.696236 702.723938 -160.190857
v 139.026443 687.118103 -160.190857
v 125.726181 701.350464 -160.190857
v 137.689377 689.172180 -160.190857
v 127.685143 699.877502 -160.190857
v 136.251602 691.157104 -160.190857
v 129.568268 698.308838 -160.190857
v 134.716675 693.067810 -160.190857
v 131.370834 696.648132 -160.190857
v 133.088394 694.899719 -160.190857
v 24.401047 648.925903 -202.518524
v 24.415222 649.588989 -203.198502
v 24.430105 650.285156 -203.844559
v 24.387613 648.297546 -201.806335
v 24.445656 651.012573 -204.455124
v 24.374956 647.705505 -201.063705
v 24.461840 651.769592 -205.028656
v 24.363104 647.151123 -200.292480
v 24.478615 652.554199 -205.563721
v 24.352089 646.635925 -199.494568
v 24.495937 653.364502 -206.059021
v 24.341938 646.161072 -198.671967
v 24.513767 654.198547 -206.513290
v 24.332676 645.727844 -197.826721
v 24.532059 655.054138 -206.925415
v 24.324326 645.337219 -196.960922
v 24.550768 655.929260 -207.294373
v 24.316910 644.990356 -196.076721
v 24.569843 656.821533 -207.619247
v 24.310442 644.687866 -195.176315
v 24.589245 657.729065 -207.899231
v 24.304945 644.430664 -194.261963
v 24.608919 658.649353 -208.133606
v 24.300426 644.219360 -193.335922
v 24.628819 659.580139 -208.321823
v 24.296902 644.054443 -192.400482
v 24.648893 660.519165 -208.463394
v 24.294378 643.936401 -191.458008
v 24.669094 661.464111 -208.557968
v 24.292860 643.865417 -190.510803
v 24.689371 662.412537 -208.605316
v 24.709673 663.362183 -208.605316
v 24.729950 664.310608 -208.557968
v 24.750151 665.255615 -208.463394
v 24.770226 666.194580 -208.321823
v 24.790125 667.125427 -208.133606
v 24.809799 668.045654 -207.899231
v 24.829201 668.953186 -207.619247
v 24.848276 669.845520 -207.294373
v 24.866985 670.720581 -206.925415
v 24.885277 671.576172 -206.513290
v 24.903107 672.410217 -206.059021
v 24.920429 673.220520 -205.563721
v 24.937202 674.005127 -205.028656
v 24.953388 674.762146 -204.455124
v 24.968939 675.489624 -203.844559
v 24.983822 676.185730 -203.198502
v 24.997997 676.848816 -202.518524
v 25.011431 677.477173 -201.806335
v 25.024088 678.069275 -201.063705
v 25.035940 678.623657 -200.292480
v 25.046955 679.138855 -199.494568
v 25.057106 679.613647 -198.671967
v 25.066368 680.046875 -197.826721
v 25.074718 680.437500 -196.960922
v 25.082134 680.784424 -196.076721
v 25.088600 681.086914 -195.176315
v 25.094099 681.344116 -194.261963
v 25.098618 681.555420 -193.335922
v 25.102142 681.720276 -192.400482
v 25.104666 681.838379 -191.458008
v 25.106184 681.909302 -190.510803
v -415.403534 691.326782 -190.510803
v -415.405029 691.255798 -191.458008
v -415.407562 691.137756 -192.400482
v -415.411102 690.972839 -193.335922
v -415.415619 690.761536 -194.261963
v -415.421112 690.504333 -195.176315
v -415.427582 690.201843 -196.076721
v -415.434998 689.854980 -196.960922
v -415.443329 689.464355 -197.826721
v -415.452606 689.031128 -198.671967
v -415.462738 688.556274 -199.494568
v -415.473755 688.041077 -200.292480
v -415.485626 687.486694 -201.063705
v -415.498260 686.894653 -201.806335
v -415.511719 686.266296 -202.518524
v -415.525879 685.603149 -203.198502
v -415.540771 684.907043 -203.844559
v -415.556305 684.179626 -204.455124
v -415.572510 683.422607 -205.028656
v -415.589264 682.638000 -205.563721
v -415.606598 681.827698 -206.059021
v -415.624420 680.993652 -206.513290
v -415.642731 680.138062 -206.925415
v -415.661438 679.262939 -207.294373
v -415.680511 678.370667 -207.619247
v -415.699921 677.463135 -207.899231
v -415.719574 676.542847 -208.133606
v -415.739471 675.612061 -208.321823
v -415.759552 674.673035 -208.463394
v -415.779755 673.728088 -208.557968
v -415.800018 672.779602 -208.605316
v -415.820343 671.830017 -208.605316
v -415.840607 670.881592 -208.557968
v -415.860809 669.936584 -208.463394
v -415.880890 668.997620 -208.321823
v -415.900787 668.066772 -208.133606
v -415.920471 667.146545 -207.899231
v -415.939850 666.239014 -207.619247
v -415.958923 665.346680 -207.294373
v -415.977661 664.471619 -206.925415
v -415.995941 663.616028 -206.513290
v -416.013763 662.781982 -206.059021
v -416.031097 661.971680 -205.563721
v -416.047852 661.187073 -205.028656
v -416.064056 660.430054 -204.455124
v -416.079590 659.702576 -203.844559
v -416.094482 659.006470 -203.198502
v -416.108673 658.343384 -202.518524
v -416.122101 657.715027 -201.806335
v -416.134735 657.122925 -201.063705
v -416.146606 656.568542 -200.292480
v -416.157623 656.053345 -199.494568
v -416.167755 655.578552 -198.671967
v -416.177032 655.145264 -197.826721
v -416.185394 654.754700 -196.960922
v -416.192810 654.407776 -196.076721
v -416.199249 654.105286 -195.176315
v -416.204773 653.848083 -194.261963
v -416.209290 653.636780 -193.335922
v -416.212799 653.471924 -192.400482
v -416.215332 653.353821 -191.458008
v -416.216858 653.282837 -190.510803
vn 0.046265 0.998929 -0.000000
vn 0.046265 0.998929 0.000000
vn 0.096001 0.995381 -0.000000
vn 0.096001 0.995381 0.000000
vn 0.145541 0.989352 -0.000000
vn 0.145541 0.989352 0.000000
vn 0.194698 0.980863 -0.000000
vn 0.194698 0.980863 0.000000
vn 0.243278 0.969957 -0.000000
vn 0.243278 0.969957 0.000000
vn 0.291284 0.956637 -0.000000
vn 0.291284 0.956637 0.000000
vn 0.338781 0.940865 -0.000000
vn 0.338781 0.940865 0.000000
vn 0.385077 0.922884 -0.000000
vn 0.385077 0.922884 0.000000
vn 0.430734 0.902479 -0.000000
vn 0.430734 0.902479 0.000000
vn 0.475095 0.879935 -0.000000
vn 0.475095 0.879935 0.000000
vn 0.518434 0.855117 -0.000000
vn 0.518434 0.855117 0.000000
vn 0.560387 0.828231 0.000000
vn 0.560387 0.828231 -0.000000
vn 0.600902 0.799323 0.000000
vn 0.600902 0.799323 -0.000000
vn 0.640081 0.768307 0.000000
vn 0.640081 0.768307 -0.000000
vn 0.677581 0.735448 0.000000
vn 0.677581 0.735448 -0.000000
vn 0.713362 0.700796 0.000000
vn 0.713362 0.700796 -0.000000
vn 0.747437 0.664332 0.000000
vn 0.747437 0.664332 -0.000000
vn 0.779593 0.626287 -0.000000
vn 0.779593 0.626287 0.000000
vn 0.809849 0.586639 -0.000000
vn 0.809849 0.586639 0.000000
vn 0.838114 0.545495 -0.000000
vn 0.838114 0.545495 0.000000
vn 0.864231 0.503095 -0.000000
vn 0.864231 0.503095 0.000000
vn 0.888233 0.459394 -0.000000
vn 0.888233 0.459394 0.000000
vn 0.910042 0.414516 -0.000000
vn 0.910042 0.414516 0.000000
vn 0.929565 0.368659 -0.000000
vn 0.929565 0.368659 0.000000
vn 0.946786 0.321864 -0.000000
vn 0.946786 0.321864 0.000000
vn 0.961656 0.274258 -0.000000
vn 0.961656 0.274258 0.000000
vn 0.974137 0.225958 -0.000000
vn 0.974137 0.225958 0.000000
vn 0.984180 0.177172 -0.000000
vn 0.984180 0.177172 0.000000
vn 0.991790 0.127877 -0.000000
vn 0.991790 0.127877 0.000000
vn 0.996931 0.078278 -0.000000
vn 0.996931 0.078278 0.000000
vn 0.999594 0.028481 -0.000000
vn 0.999594 0.028481 0.000000
vn 0.999772 -0.021375 0.000000
vn 0.999772 -0.021375 0.000000
vn 0.997464 -0.071172 0.000000
vn 0.997464 -0.071172 0.000000
vn 0.992675 -0.120819 0.000000
vn 0.992675 -0.120819 0.000000
vn 0.985418 -0.170152 0.000000
vn 0.985418 -0.170152 0.000000
vn 0.975709 -0.219069 0.000000
vn 0.975709 -0.219069 0.000000
vn 0.963589 -0.267389 0.000000
vn 0.963589 -0.267389 0.000000
vn 0.949061 -0.315093 0.000000
vn 0.949061 -0.315093 0.000000
vn 0.932161 -0.362043 0.000000
vn 0.932161 -0.362043 0.000000
vn 0.912949 -0.408073 0.000000
vn 0.912949 -0.408073 0.000000
vn 0.891503 -0.453016 0.000000
vn 0.891503 -0.453016 0.000000
vn 0.867789 -0.496933 0.000000
vn 0.867789 -0.496933 0.000000
vn 0.841944 -0.539565 0.000000
vn 0.841944 -0.539565 0.000000
vn 0.814035 -0.580816 0.000000
vn 0.814035 -0.580816 0.000000
vn 0.784061 -0.620683 0.000000
vn 0.784061 -0.620683 0.000000
vn 0.752081 -0.659071 0.000000
vn 0.752081 -0.659071 0.000000
vn 0.718394 -0.695637 0.000000
vn 0.718394 -0.695637 0.000000
vn 0.682735 -0.730666 0.000000
vn 0.682735 -0.730666 0.000000
vn 0.645503 -0.763758 0.000000
vn 0.645503 -0.763758 0.000000
vn 0.606708 -0.794925 0.000000
vn 0.606708 -0.794925 0.000000
vn 0.566197 -0.824270 0.000000
vn 0.566197 -0.824270 0.000000
vn 0.524511 -0.851403 0.000000
vn 0.524511 -0.851403 0.000000
vn 0.481354 -0.876526 0.000000
vn 0.481354 -0.876526 0.000000
vn 0.437103 -0.899411 0.000000
vn 0.437103 -0.899411 0.000000
vn 0.391712 -0.920088 0.000000
vn 0.391712 -0.920088 0.000000
vn 0.345355 -0.938472 0.000000
vn 0.345355 -0.938472 0.000000
vn 0.298208 -0.954501 0.000000
vn 0.298208 -0.954501 0.000000
vn 0.250126 -0.968213 0.000000
vn 0.250126 -0.968213 0.000000
vn 0.201639 -0.979460 0.000000
vn 0.201639 -0.979460 0.000000
vn 0.152579 -0.988291 0.000000
vn 0.152579 -0.988291 0.000000
vn 0.103132 -0.994668 0.000000
vn 0.103132 -0.994668 0.000000
vn 0.053301 -0.998579 0.000000
vn 0.053301 -0.998579 0.000000
vn 0.003663 -0.999993 0.000000
vn 0.003663 -0.999993 0.000000
vn -0.021367 -0.999461 0.024937
vn -0.021367 -0.999462 0.024873
vn -0.021314 -0.996975 0.074747
vn -0.021314 -0.996975 0.074748
vn -0.021208 -0.992010 0.124367
vn -0.021049 -0.984581 0.173659
vn -0.021208 -0.992018 0.124304
vn -0.021049 -0.984592 0.173597
vn -0.020838 -0.974708 0.222510
vn -0.020575 -0.962404 0.270843
vn -0.020838 -0.974708 0.222511
vn -0.020575 -0.962404 0.270843
vn -0.020260 -0.947699 0.318523
vn -0.020260 -0.947699 0.318523
vn -0.019896 -0.930668 0.365323
vn -0.019897 -0.930690 0.365267
vn -0.019482 -0.911277 0.411332
vn -0.019482 -0.911302 0.411278
vn -0.018510 -0.865813 0.500026
vn -0.019020 -0.889671 0.456206
vn -0.019019 -0.889645 0.456257
vn -0.017955 -0.839849 0.542523
vn -0.018510 -0.865841 0.499977
vn -0.017955 -0.839849 0.542523
vn -0.016711 -0.781680 0.623456
vn -0.017354 -0.811735 0.583768
vn -0.017354 -0.811734 0.583769
vn -0.016711 -0.781648 0.623496
vn -0.016026 -0.749615 0.661680
vn -0.016026 -0.749615 0.661680
vn -0.015301 -0.715700 0.698240
vn -0.015301 -0.715700 0.698240
vn -0.013739 -0.642672 0.766018
vn -0.014537 -0.679995 0.733073
vn -0.014538 -0.680027 0.733043
vn -0.013739 -0.642641 0.766045
vn -0.012905 -0.603654 0.797142
vn -0.012905 -0.603654 0.797142
vn -0.012040 -0.563196 0.826235
vn -0.012040 -0.563196 0.826235
vn -0.011145 -0.521332 0.853281
vn -0.010222 -0.478120 0.878235
vn -0.011145 -0.521332 0.853281
vn -0.010222 -0.478119 0.878235
vn -0.009274 -0.433784 0.900969
vn -0.009274 -0.433784 0.900969
vn -0.008302 -0.388349 0.921475
vn -0.008302 -0.388326 0.921484
vn -0.007311 -0.341958 0.939687
vn -0.007311 -0.341979 0.939679
vn -0.006300 -0.294672 0.955578
vn -0.006300 -0.294672 0.955578
vn -0.004235 -0.198113 0.980170
vn -0.005274 -0.246689 0.969080
vn -0.005274 -0.246704 0.969077
vn -0.004235 -0.198100 0.980173
vn -0.002128 -0.099541 0.995031
vn -0.003186 -0.149012 0.988830
vn -0.003186 -0.149021 0.988829
vn -0.002128 -0.099535 0.995032
vn -0.001065 -0.049838 0.998757
vn -0.001065 -0.049838 0.998757
vn 0.000000 0.000000 1.000000
vn 0.000000 0.000000 1.000000
vn 0.002128 0.099535 0.995032
vn 0.001065 0.049838 0.998757
vn 0.001065 0.049835 0.998757
vn 0.003186 0.149021 0.988829
vn 0.002128 0.099541 0.995031
vn 0.003186 0.149012 0.988830
vn 0.004235 0.198100 0.980173
vn 0.004235 0.198113 0.980170
vn 0.006300 0.294672 0.955578
vn 0.005274 0.246704 0.969076
vn 0.005274 0.246689 0.969080
vn 0.006300 0.294672 0.955578
vn 0.008302 0.388350 0.921475
vn 0.007311 0.341959 0.939687
vn 0.007311 0.341979 0.939679
vn 0.008302 0.388327 0.921484
vn 0.009274 0.433784 0.900969
vn 0.009274 0.433784 0.900969
vn 0.010222 0.478120 0.878235
vn 0.010222 0.478119 0.878235
vn 0.011145 0.521332 0.853281
vn 0.011145 0.521332 0.853281
vn 0.012040 0.563196 0.826235
vn 0.012040 0.563196 0.826235
vn 0.012905 0.603654 0.797142
vn 0.012905 0.603654 0.797142
vn 0.013739 0.642672 0.766018
vn 0.013739 0.642640 0.766045
vn 0.014538 0.680027 0.733043
vn 0.015301 0.715700 0.698240
vn 0.014538 0.680027 0.733043
vn 0.016026 0.749615 0.661680
vn 0.015300 0.715668 0.698273
vn 0.016026 0.749615 0.661680
vn 0.017354 0.811734 0.583769
vn 0.016710 0.781648 0.623496
vn 0.016711 0.781679 0.623456
vn 0.017354 0.811734 0.583769
vn 0.017955 0.839849 0.542523
vn 0.017955 0.839849 0.542523
vn 0.018510 0.865841 0.499977
vn 0.018510 0.865813 0.500026
vn 0.019020 0.889671 0.456206
vn 0.019020 0.889671 0.456206
vn 0.019482 0.911278 0.411331
vn 0.019482 0.911278 0.411331
vn 0.019896 0.930668 0.365322
vn 0.019897 0.930690 0.365267
vn 0.020260 0.947699 0.318523
vn 0.020260 0.947698 0.318524
vn 0.020575 0.962404 0.270842
vn 0.020575 0.962404 0.270842
vn 0.020838 0.974708 0.222511
vn 0.020838 0.974708 0.222510
vn 0.021049 0.984592 0.173598
vn 0.021049 0.984581 0.173660
vn 0.021208 0.992010 0.124367
vn 0.021208 0.992018 0.124304
vn 0.021314 0.996979 0.074684
vn 0.021314 0.996975 0.074747
vn 0.021367 0.999461 0.024937
vn 0.021367 0.999461 0.024938
vn -0.046361 -0.998925 0.000000
vn -0.046361 -0.998925 0.000000
vn -0.096001 -0.995381 0.000000
vn -0.096001 -0.995381 0.000000
vn -0.145541 -0.989352 0.000000
vn -0.145541 -0.989352 0.000000
vn -0.194698 -0.980863 0.000000
vn -0.194698 -0.980863 0.000000
vn -0.243188 -0.969979 0.000000
vn -0.243188 -0.969979 0.000000
vn -0.291372 -0.956610 0.000000
vn -0.291372 -0.956610 0.000000
vn -0.338781 -0.940865 0.000000
vn -0.338781 -0.940865 0.000000
vn -0.385073 -0.922886 0.000000
vn -0.385073 -0.922886 0.000000
vn -0.430656 -0.902516 0.000000
vn -0.430656 -0.902516 0.000000
vn -0.475169 -0.879894 0.000000
vn -0.475169 -0.879894 0.000000
vn -0.518369 -0.855157 0.000000
vn -0.518369 -0.855157 0.000000
vn -0.560381 -0.828235 0.000000
vn -0.560381 -0.828235 0.000000
vn -0.600969 -0.799272 0.000000
vn -0.600969 -0.799272 0.000000
vn -0.640081 -0.768307 0.000000
vn -0.640081 -0.768307 0.000000
vn -0.677575 -0.735453 0.000000
vn -0.677575 -0.735453 0.000000
vn -0.713368 -0.700790 0.000000
vn -0.713368 -0.700790 0.000000
vn -0.747437 -0.664332 0.000000
vn -0.747437 -0.664332 0.000000
vn -0.779593 -0.626287 0.000000
vn -0.779593 -0.626287 0.000000
vn -0.809849 -0.586639 0.000000
vn -0.809849 -0.586639 0.000000
vn -0.838114 -0.545495 0.000000
vn -0.838114 -0.545495 0.000000
vn -0.864231 -0.503095 0.000000
vn -0.864231 -0.503095 0.000000
vn -0.888233 -0.459394 0.000000
vn -0.888233 -0.459394 0.000000
vn -0.910037 -0.414526 0.000000
vn -0.910037 -0.414526 0.000000
vn -0.929565 -0.368659 0.000000
vn -0.929565 -0.368659 0.000000
vn -0.946793 -0.321843 0.000000
vn -0.946793 -0.321843 0.000000
vn -0.961653 -0.274269 0.000000
vn -0.961653 -0.274269 0.000000
vn -0.974132 -0.225979 0.000000
vn -0.974132 -0.225979 0.000000
vn -0.984183 -0.177155 0.000000
vn -0.984183 -0.177155 0.000000
vn -0.991790 -0.127877 0.000000
vn -0.991790 -0.127877 0.000000
vn -0.996931 -0.078286 0.000000
vn -0.996931 -0.078286 0.000000
vn -0.999594 -0.028479 0.000000
vn -0.999594 -0.028479 0.000000
vn -0.999772 0.021375 0.000000
vn -0.999772 0.021375 0.000000
vn -0.997464 0.071179 0.000000
vn -0.997464 0.071179 0.000000
vn -0.992676 0.120807 0.000000
vn -0.992676 0.120807 0.000000
vn -0.985415 0.170168 0.000000
vn -0.985415 0.170168 0.000000
vn -0.975714 0.219049 0.000000
vn -0.975714 0.219049 0.000000
vn -0.963589 0.267389 0.000000
vn -0.963589 0.267389 0.000000
vn -0.949048 0.315132 0.000000
vn -0.949048 0.315132 0.000000
vn -0.932170 0.362022 0.000000
vn -0.932170 0.362022 0.000000
vn -0.912961 0.408047 0.000000
vn -0.891503 0.453016 0.000000
vn -0.912961 0.408047 0.000000
vn -0.891503 0.453016 0.000000
vn -0.867789 0.496933 0.000000
vn -0.867789 0.496933 0.000000
vn -0.841950 0.539556 0.000000
vn -0.841950 0.539556 0.000000
vn -0.814029 0.580824 0.000000
vn -0.814029 0.580824 0.000000
vn -0.784030 0.620723 0.000000
vn -0.784030 0.620723 0.000000
vn -0.752117 0.659030 0.000000
vn -0.752117 0.659030 0.000000
vn -0.718347 0.695685 0.000000
vn -0.718347 0.695685 0.000000
vn -0.682787 0.730618 0.000000
vn -0.682787 0.730618 0.000000
vn -0.645503 0.763758 0.000000
vn -0.645503 0.763758 0.000000
vn -0.606641 0.794976 0.000000
vn -0.606641 0.794976 0.000000
vn -0.566268 0.824221 0.000000
vn -0.566268 0.824221 0.000000
vn -0.524447 0.851443 0.000000
vn -0.524447 0.851443 0.000000
vn -0.481423 0.876488 0.000000
vn -0.481423 0.876488 0.000000
vn -0.437108 0.899409 0.000000
vn -0.437108 0.899409 0.000000
vn -0.391708 0.920090 0.000000
vn -0.391708 0.920090 0.000000
vn -0.345270 0.938504 0.000000
vn -0.345270 0.938504 0.000000
vn -0.298211 0.954500 0.000000
vn -0.298211 0.954500 0.000000
vn -0.250216 0.968190 0.000000
vn -0.250216 0.968190 0.000000
vn -0.201544 0.979479 0.000000
vn -0.201544 0.979479 0.000000
vn -0.152673 0.988277 0.000000
vn -0.152673 0.988277 0.000000
vn -0.103036 0.994678 0.000000
vn -0.103036 0.994678 0.000000
vn -0.053398 0.998573 0.000000
vn -0.003566 0.999994 0.000000
vn -0.053398 0.998573 0.000000
vn -0.003566 0.999994 0.000000
vn 0.000000 0.000000 -1.000000
vn 0.000000 0.000000 -1.000000
vn 0.000000 0.000000 -1.000000
vn 0.000000 0.000000 -1.000000
vn 0.000000 0.000000 -1.000000
vn 0.000000 0.000000 -1.000000
vn 0.000000 0.000000 -1.000000
vn 0.000000 0.000000 -1.000000
vn 0.000000 0.000000 -1.000000
vn 0.000000 0.000000 -1.000000
vn 0.000000 0.000000 -1.000000
vn 0.000000 0.000000 -1.000000
vn 0.000000 0.000000 -1.000000
vn 0.000000 0.000000 -1.000000
vn 0.000000 0.000000 -1.000000
vn 0.000000 0.000000 -1.000000
vn 0.000000 0.000000 -1.000000
vn 0.000000 0.000000 -1.000000
vn 0.000000 0.000000 -1.000000
vn 0.000000 0.000000 -1.000000
vn 0.000000 0.000000 -1.000000
vn 0.000000 0.000000 -1.000000
vn 0.000000 0.000000 -1.000000
vn 0.000000 0.000000 -1.000000
vn 0.000000 0.000000 -1.000000
vn 0.000000 0.000000 -1.000000
vn 0.000000 0.000000 -1.000000
vn 0.000000 0.000000 -1.000000
vn 0.000000 0.000000 -1.000000
vn 0.000000 -0.000000 -1.000000
vn 0.000000 -0.000000 -1.000000
vn 0.000000 0.000000 -1.000000
vn 0.000000 0.000000 -1.000000
vn 0.000000 -0.000000 -1.000000
vn 0.000000 0.000000 -1.000000
vn 0.000000 0.000000 -1.000000
vn 0.000000 -0.000000 -1.000000
vn 0.000000 0.000000 -1.000000
vn 0.000000 0.000000 -1.000000
vn 0.000000 0.000000 -1.000000
vn 0.000000 0.000000 -1.000000
vn 0.000000 0.000000 -1.000000
vn 0.000000 0.000000 -1.000000
vn 0.000000 0.000000 -1.000000
vn 0.000000 0.000000 -1.000000
vn 0.000000 0.000000 -1.000000
vn 0.000000 0.000000 -1.000000
vn 0.000000 0.000000 -1.000000
vn 0.000000 0.000000 -1.000000
vn 0.000000 0.000000 -1.000000
vn 0.000000 0.000000 -1.000000
vn 0.000000 0.000000 -1.000000
vn 0.000000 0.000000 -1.000000
vn 0.000000 0.000000 -1.000000
vn 0.000000 0.000000 -1.000000
vn 0.000000 0.000000 -1.000000
vn 0.000000 0.000000 -1.000000
vn 0.000000 0.000000 -1.000000
vn 0.000000 0.000000 -1.000000
vn 0.000000 0.000000 -1.000000
vn 0.000000 0.000000 -1.000000
vn 0.000000 0.000000 -1.000000
vn 0.000000 0.000000 -1.000000
vn 0.000000 0.000000 -1.000000
vn 0.000000 0.000000 -1.000000
vn 0.000000 0.000000 -1.000000
vn 0.000000 0.000000 -1.000000
vn 0.000000 0.000000 -1.000000
vn 0.000000 0.000000 -1.000000
vn 0.000000 0.000000 -1.000000
vn 0.000000 0.000000 -1.000000
vn 0.000000 0.000000 -1.000000
vn 0.000000 0.000000 -1.000000
vn 0.000000 0.000000 -1.000000
vn 0.000000 0.000000 -1.000000
vn 0.000000 0.000000 -1.000000
vn 0.000000 0.000000 -1.000000
vn 0.000000 0.000000 -1.000000
vn 0.000000 0.000000 -1.000000
vn 0.000000 0.000000 -1.000000
vn 0.000000 0.000000 -1.000000
vn 0.000000 0.000000 -1.000000
vn 0.000000 0.000000 -1.000000
vn 0.000000 0.000000 -1.000000
vn 0.000000 -0.000000 -1.000000
vn 0.000000 0.000000 -1.000000
vn 0.000000 -0.000000 -1.000000
vn 0.000000 0.000000 -1.000000
vn 0.000000 -0.000000 -1.000000
vn 0.000000 0.000000 -1.000000
vn 0.000000 -0.000000 -1.000000
vn 0.000000 0.000000 -1.000000
vn 0.000000 -0.000000 -1.000000
vn 0.000000 -0.000000 -1.000000
vn 0.000000 0.000000 -1.000000
vn 0.000000 -0.000000 -1.000000
vn 0.000000 0.000000 -1.000000
vn 0.000000 0.000000 -1.000000
vn 0.000000 -0.000000 -1.000000
vn 0.000000 -0.000000 -1.000000
vn 0.000000 0.000000 -1.000000
vn 0.000000 0.000000 -1.000000
vn 0.000000 -0.000000 -1.000000
vn 0.000000 0.000000 -1.000000
vn 0.000000 -0.000000 -1.000000
vn 0.000000 0.000000 -1.000000
vn 0.000000 -0.000000 -1.000000
vn 0.000000 0.000000 -1.000000
vn 0.000000 -0.000000 -1.000000
vn 0.000000 0.000000 -1.000000
vn 0.000000 -0.000000 -1.000000
vn 0.000000 0.000000 -1.000000
vn 0.000000 -0.000000 -1.000000
vn 0.000000 0.000000 -1.000000
vn 0.000000 0.000000 -1.000000
vn 0.000000 0.000000 -1.000000
vn 0.000000 0.000000 -1.000000
vn 0.000000 0.000000 -1.000000
vn 0.000000 0.000000 -1.000000
vn 0.000000 0.000000 -1.000000
vn 0.000000 0.000000 -1.000000
vn 0.000000 0.000000 -1.000000
vn 0.000000 0.000000 -1.000000
vn 0.000000 0.000000 -1.000000
vn 0.000000 0.000000 -1.000000
vn 0.000000 0.000000 -1.000000
vn 0.000000 0.000000 -1.000000
vn 0.000000 0.000000 -1.000000
vn 0.000000 0.000000 -1.000000
vn 0.000000 -0.000000 -1.000000
vn 0.000000 0.000000 -1.000000
vn 0.000000 0.000000 -1.000000
vn 0.000000 0.000000 -1.000000
vn 0.000000 -0.000000 -1.000000
vn 0.000000 0.000000 -1.000000
vn 0.000000 0.000000 -1.000000
vn 0.000000 0.000000 -1.000000
vn 0.000000 -0.000000 -1.000000
vn 0.000000 0.000000 -1.000000
vn 0.000000 0.000000 -1.000000
vn 0.000000 0.000000 -1.000000
vn 0.000000 -0.000000 -1.000000
vn 0.000000 0.000000 -1.000000
vn 0.000000 0.000000 -1.000000
vn 0.000000 0.000000 -1.000000
vn 0.000000 0.000000 -1.000000
vn 0.000000 -0.000000 -1.000000
vn 0.000000 0.000000 -1.000000
vn 0.000000 0.000000 -1.000000
vn 0.000000 0.000000 -1.000000
vn 0.000000 -0.000000 -1.000000
vn 0.000000 0.000000 -1.000000
vn 0.000000 0.000000 -1.000000
vn 0.000000 -0.000000 -1.000000
vn 0.000000 0.000000 -1.000000
vn 0.000000 0.000000 -1.000000
vn 0.000000 0.000000 -1.000000
vn 0.000000 0.000000 -1.000000
vn 0.000000 -0.000000 -1.000000
vn 0.000000 0.000000 -1.000000
vn 0.000000 0.000000 -1.000000
vn 0.000000 0.000000 -1.000000
vn 0.000000 -0.000000 -1.000000
vn 0.000000 0.000000 -1.000000
vn 0.000000 0.000000 -1.000000
vn 0.000000 0.000000 -1.000000
vn 0.000000 -0.000000 -1.000000
vn 0.000000 0.000000 -1.000000
vn 0.000000 0.000000 -1.000000
vn 0.000000 -0.000000 -1.000000
vn 0.000000 0.000000 -1.000000
vn 0.000000 0.000000 -1.000000
vn 0.000000 0.000000 -1.000000
vn 0.000000 0.000000 -1.000000
vn 0.000000 -0.000000 -1.000000
vn 0.000000 0.000000 -1.000000
vn 0.000000 0.000000 -1.000000
vn 0.000000 0.000000 -1.000000
vn 0.000000 -0.000000 -1.000000
vn 0.000000 0.000000 -1.000000
vn 0.000000 0.000000 -1.000000
vn 0.000000 0.000000 -1.000000
vn 0.000000 -0.000000 -1.000000
vn 0.000000 0.000000 -1.000000
vn 0.000000 0.000000 -1.000000
vn 0.000000 0.000000 -1.000000
vn 0.000000 -0.000000 -1.000000
vn 0.000000 0.000000 -1.000000
vn 0.000000 0.000000 -1.000000
vn 0.000000 0.000000 -1.000000
vn 0.000000 -0.000000 -1.000000
vn 0.000000 0.000000 -1.000000
vn 0.000000 0.000000 -1.000000
vn 0.000000 -0.000000 -1.000000
vn 0.000000 0.000000 1.000000
vn 0.000000 0.000000 1.000000
vn 0.000000 0.000000 1.000000
vn 0.000000 0.000000 1.000000
vn 0.000000 0.000000 1.000000
vn 0.000000 0.000000 1.000000
vn 0.000000 0.000000 1.000000
vn 0.000000 0.000000 1.000000
vn 0.000000 0.000000 1.000000
vn 0.000000 0.000000 1.000000
vn 0.000000 0.000000 1.000000
vn 0.000000 0.000000 1.000000
vn 0.000000 0.000000 1.000000
vn 0.000000 0.000000 1.000000
vn 0.000000 0.000000 1.000000
vn 0.000000 0.000000 1.000000
vn 0.000000 0.000000 1.000000
vn 0.000000 0.000000 1.000000
vn 0.000000 0.000000 1.000000
vn 0.000000 0.000000 1.000000
vn 0.000000 0.000000 1.000000
vn 0.000000 0.000000 1.000000
vn 0.000000 0.000000 1.000000
vn 0.000000 0.000000 1.000000
vn 0.000000 0.000000 1.000000
vn 0.000000 0.000000 1.000000
vn 0.000000 0.000000 1.000000
vn 0.000000 0.000000 1.000000
vn 0.000000 0.000000 1.000000
vn 0.000000 0.000000 1.000000
vn 0.000000 0.000000 1.000000
vn 0.000000 0.000000 1.000000
vn 0.000000 0.000000 1.000000
vn 0.000000 0.000000 1.000000
vn 0.000000 0.000000 1.000000
vn 0.000000 0.000000 1.000000
vn 0.000000 0.000000 1.000000
vn 0.000000 0.000000 1.000000
vn 0.000000 0.000000 1.000000
vn 0.000000 0.000000 1.000000
vn 0.000000 0.000000 1.000000
vn 0.000000 0.000000 1.000000
vn 0.000000 0.000000 1.000000
vn 0.000000 0.000000 1.000000
vn 0.000000 0.000000 1.000000
vn 0.000000 0.000000 1.000000
vn 0.000000 0.000000 1.000000
vn 0.000000 0.000000 1.000000
vn 0.000000 0.000000 1.000000
vn 0.000000 0.000000 1.000000
vn 0.000000 0.000000 1.000000
vn 0.000000 0.000000 1.000000
vn 0.000000 0.000000 1.000000
vn 0.000000 0.000000 1.000000
vn 0.000000 0.000000 1.000000
vn 0.000000 0.000000 1.000000
vn 0.000000 0.000000 1.000000
vn 0.000000 0.000000 1.000000
vn 0.000000 0.000000 1.000000
vn 0.000000 0.000000 1.000000
vn 0.000000 0.000000 1.000000
vn 0.000000 0.000000 1.000000
vn 0.000000 0.000000 1.000000
vn 0.000000 0.000000 1.000000
vn 0.000000 0.000000 1.000000
vn 0.000000 0.000000 1.000000
vn 0.000000 0.000000 1.000000
vn 0.000000 0.000000 1.000000
vn 0.000000 0.000000 1.000000
vn 0.000000 0.000000 1.000000
vn 0.000000 0.000000 1.000000
vn 0.000000 0.000000 1.000000
vn 0.000000 0.000000 1.000000
vn 0.000000 0.000000 1.000000
vn 0.000000 0.000000 1.000000
vn 0.000000 0.000000 1.000000
vn 0.000000 0.000000 1.000000
vn 0.000000 0.000000 1.000000
vn 0.000000 0.000000 1.000000
vn 0.000000 0.000000 1.000000
vn 0.000000 0.000000 1.000000
vn 0.000000 0.000000 1.000000
vn 0.000000 0.000000 1.000000
vn 0.000000 0.000000 1.000000
vn 0.000000 0.000000 1.000000
vn 0.000000 0.000000 1.000000
vn 0.000000 0.000000 1.000000
vn 0.000000 0.000000 1.000000
vn 0.000000 0.000000 1.000000
vn 0.000000 0.000000 1.000000
vn 0.000000 0.000000 1.000000
vn 0.000000 0.000000 1.000000
vn 0.000000 0.000000 1.000000
vn 0.000000 0.000000 1.000000
vn 0.000000 0.000000 1.000000
vn 0.000000 0.000000 1.000000
vn 0.000000 0.000000 1.000000
vn 0.000000 0.000000 1.000000
vn 0.000000 0.000000 1.000000
vn 0.000000 0.000000 1.000000
vn 0.000000 0.000000 1.000000
vn 0.000000 0.000000 1.000000
vn 0.000000 0.000000 1.000000
vn 0.000000 0.000000 1.000000
vn 0.000000 0.000000 1.000000
vn 0.000000 0.000000 1.000000
vn 0.000000 0.000000 1.000000
vn 0.000000 0.000000 1.000000
vn 0.000000 0.000000 1.000000
vn 0.000000 0.000000 1.000000
vn 0.000000 0.000000 1.000000
vn 0.000000 0.000000 1.000000
vn 0.000000 0.000000 1.000000
vn 0.000000 0.000000 1.000000
vn 0.000000 0.000000 1.000000
vn 0.000000 0.000000 1.000000
vn 0.000000 0.000000 1.000000
vn 0.000000 0.000000 1.000000
vn 0.000000 0.000000 1.000000
vn 0.000000 0.000000 1.000000
vn 0.000000 0.000000 1.000000
vn 0.000000 0.000000 1.000000
vn 0.000000 0.000000 1.000000
vn 0.000000 0.000000 1.000000
vn 0.000000 0.000000 1.000000
vn 0.000000 0.000000 1.000000
vn 0.000000 0.000000 1.000000
vn 0.000000 0.000000 1.000000
vn 0.000000 0.000000 1.000000
vn 0.000000 0.000000 1.000000
vn 0.000000 0.000000 1.000000
vn 0.000000 0.000000 1.000000
vn 0.000000 0.000000 1.000000
vn 0.000000 0.000000 1.000000
vn 0.000000 0.000000 1.000000
vn 0.000000 0.000000 1.000000
vn 0.000000 0.000000 1.000000
vn 0.000000 0.000000 1.000000
vn 0.000000 0.000000 1.000000
vn 0.000000 0.000000 1.000000
vn 0.000000 0.000000 1.000000
vn 0.000000 0.000000 1.000000
vn 0.000000 0.000000 1.000000
vn 0.000000 0.000000 1.000000
vn 0.000000 0.000000 1.000000
vn 0.000000 0.000000 1.000000
vn 0.000000 0.000000 1.000000
vn 0.000000 0.000000 1.000000
vn 0.000000 0.000000 1.000000
vn 0.000000 0.000000 1.000000
vn 0.000000 0.000000 1.000000
vn 0.000000 0.000000 1.000000
vn 0.000000 0.000000 1.000000
vn 0.000000 0.000000 1.000000
vn 0.000000 0.000000 1.000000
vn 0.000000 0.000000 1.000000
vn 0.000000 0.000000 1.000000
vn 0.000000 0.000000 1.000000
vn 0.000000 0.000000 1.000000
vn 0.000000 0.000000 1.000000
vn 0.000000 0.000000 1.000000
vn 0.000000 0.000000 1.000000
vn 0.000000 0.000000 1.000000
vn 0.000000 0.000000 1.000000
vn 0.000000 0.000000 1.000000
vn 0.000000 0.000000 1.000000
vn 0.000000 0.000000 1.000000
vn 0.000000 0.000000 1.000000
vn 0.000000 0.000000 1.000000
vn 0.000000 0.000000 1.000000
vn 0.000000 0.000000 1.000000
vn 0.000000 0.000000 1.000000
vn 0.000000 0.000000 1.000000
vn 0.000000 0.000000 1.000000
vn 0.000000 0.000000 1.000000
vn 0.000000 0.000000 1.000000
vn 0.000000 0.000000 1.000000
vn 0.000000 0.000000 1.000000
vn 0.000000 0.000000 1.000000
vn 0.000000 0.000000 1.000000
vn 0.000000 0.000000 1.000000
vn 0.000000 0.000000 1.000000
vn 0.000000 0.000000 1.000000
vn 0.000000 0.000000 1.000000
vn 0.000000 0.000000 1.000000
vn 0.000000 0.000000 1.000000
vn 0.000000 0.000000 1.000000
vn 0.000000 0.000000 1.000000
vn 0.000000 0.000000 1.000000
vn 0.000000 0.000000 1.000000
vn 0.000000 0.000000 1.000000
vn 0.000000 0.000000 1.000000
vn 0.000000 0.000000 1.000000
vn 0.000000 0.000000 1.000000
vn -0.152560 0.988294 0.000000
vn -0.152560 0.988294 0.000000
vn 0.046295 0.998928 0.000000
vn 0.046295 0.998928 -0.000000
vn 0.096026 0.995379 0.000000
vn 0.096026 0.995379 -0.000000
vn 0.145508 0.989357 0.000000
vn 0.145508 0.989357 -0.000000
vn 0.194665 0.980870 0.000000
vn 0.194665 0.980870 -0.000000
vn 0.243325 0.969945 0.000000
vn 0.243325 0.969945 -0.000000
vn 0.291317 0.956627 -0.000000
vn 0.291317 0.956627 0.000000
vn 0.338701 0.940894 -0.000000
vn 0.338701 0.940894 0.000000
vn 0.430671 0.902509 -0.000000
vn 0.385149 0.922854 -0.000000
vn 0.385149 0.922854 0.000000
vn 0.430671 0.902509 -0.000000
vn 0.475124 0.879919 -0.000000
vn 0.475124 0.879919 0.000000
vn 0.560387 0.828231 -0.000000
vn 0.518382 0.855149 -0.000000
vn 0.518382 0.855149 0.000000
vn 0.560387 0.828231 -0.000000
vn 0.600976 0.799267 -0.000000
vn 0.600976 0.799267 0.000000
vn 0.640038 0.768343 -0.000000
vn 0.640038 0.768343 0.000000
vn 0.677574 0.735454 -0.000000
vn 0.677574 0.735454 0.000000
vn 0.713373 0.700785 -0.000000
vn 0.713373 0.700785 0.000000
vn 0.779601 0.626277 -0.000000
vn 0.747426 0.664345 -0.000000
vn 0.747426 0.664345 0.000000
vn 0.779601 0.626277 -0.000000
vn 0.809862 0.586621 0.000000
vn 0.838086 0.545538 -0.000000
vn 0.809862 0.586621 -0.000000
vn 0.838086 0.545538 -0.000000
vn 0.864245 0.503070 0.000000
vn 0.864245 0.503070 -0.000000
vn 0.888240 0.459379 0.000000
vn 0.888240 0.459379 -0.000000
vn 0.910039 0.414522 0.000000
vn 0.910039 0.414522 -0.000000
vn 0.929569 0.368648 0.000000
vn 0.929569 0.368648 -0.000000
vn 0.946787 0.321861 0.000000
vn 0.946787 0.321861 -0.000000
vn 0.961655 0.274262 0.000000
vn 0.961655 0.274262 -0.000000
vn 0.974130 0.225988 -0.000000
vn 0.974130 0.225988 0.000000
vn 0.984183 0.177152 -0.000000
vn 0.984183 0.177152 0.000000
vn 0.991791 0.127871 0.000000
vn 0.991791 0.127871 -0.000000
vn 0.996931 0.078282 -0.000000
vn 0.996931 0.078282 0.000000
vn 0.999594 0.028483 -0.000000
vn 0.999594 0.028483 0.000000
vn 0.999772 -0.021373 0.000000
vn 0.999772 -0.021373 0.000000
vn 0.997464 -0.071179 0.000000
vn 0.997464 -0.071179 0.000000
vn 0.992675 -0.120816 0.000000
vn 0.992675 -0.120816 0.000000
vn 0.985420 -0.170141 0.000000
vn 0.985420 -0.170141 0.000000
vn 0.975713 -0.219051 0.000000
vn 0.975713 -0.219051 0.000000
vn 0.949055 -0.315111 0.000000
vn 0.963581 -0.267417 0.000000
vn 0.963581 -0.267417 0.000000
vn 0.949055 -0.315111 0.000000
vn 0.912964 -0.408040 0.000000
vn 0.932168 -0.362027 0.000000
vn 0.932168 -0.362027 0.000000
vn 0.891492 -0.453036 0.000000
vn 0.912964 -0.408040 0.000000
vn 0.891492 -0.453036 0.000000
vn 0.867796 -0.496921 0.000000
vn 0.867796 -0.496921 0.000000
vn 0.841956 -0.539546 0.000000
vn 0.841956 -0.539546 0.000000
vn 0.814006 -0.580857 0.000000
vn 0.814006 -0.580857 0.000000
vn 0.784044 -0.620705 0.000000
vn 0.784044 -0.620705 0.000000
vn 0.752126 -0.659019 0.000000
vn 0.752126 -0.659019 0.000000
vn 0.718359 -0.695673 0.000000
vn 0.718359 -0.695673 0.000000
vn 0.682770 -0.730634 0.000000
vn 0.682770 -0.730634 0.000000
vn 0.645510 -0.763752 0.000000
vn 0.645510 -0.763752 0.000000
vn 0.606633 -0.794982 0.000000
vn 0.606633 -0.794982 0.000000
vn 0.566248 -0.824235 0.000000
vn 0.566248 -0.824235 0.000000
vn 0.524495 -0.851414 0.000000
vn 0.524495 -0.851414 0.000000
vn 0.481373 -0.876516 0.000000
vn 0.481373 -0.876516 0.000000
vn 0.437074 -0.899425 0.000000
vn 0.437074 -0.899425 0.000000
vn 0.391720 -0.920085 0.000000
vn 0.391720 -0.920085 0.000000
vn 0.345333 -0.938480 0.000000
vn 0.345333 -0.938480 0.000000
vn 0.298185 -0.954508 0.000000
vn 0.298185 -0.954508 0.000000
vn 0.250176 -0.968200 0.000000
vn 0.250176 -0.968200 0.000000
vn 0.152555 -0.988295 0.000000
vn 0.201638 -0.979460 0.000000
vn 0.201638 -0.979460 0.000000
vn 0.152555 -0.988295 0.000000
vn 0.103123 -0.994669 0.000000
vn 0.103123 -0.994669 0.000000
vn 0.003561 -0.999994 0.000000
vn 0.053392 -0.998574 0.000000
vn 0.053392 -0.998574 0.000000
vn 0.003561 -0.999994 0.000000
vn -0.194657 -0.980871 0.000000
vn -0.194657 -0.980871 -0.000000
vn -0.999772 0.021373 0.000000
vn -0.999772 0.021374 0.000000
vn -0.999772 0.021374 -0.000000
vn -0.999772 0.021373 0.000000
vn -0.999772 0.021374 -0.000000
vn -0.999772 0.021374 0.000000
vn -0.999772 0.021374 -0.000000
vn -0.999772 0.021374 -0.000001
vn -0.999771 0.021374 -0.000001
vn -0.999772 0.021373 0.000001
vn -0.999772 0.021373 0.000001
vn -0.999772 0.021373 0.000001
vn -0.999772 0.021374 -0.000000
vn -0.999772 0.021374 -0.000000
vn -0.999772 0.021373 0.000000
vn -0.999772 0.021374 -0.000000
vn -0.999772 0.021374 -0.000000
vn -0.999772 0.021374 0.000000
vn -0.999772 0.021375 -0.000001
vn -0.999772 0.021374 0.000000
vn -0.999772 0.021372 0.000001
vn -0.999772 0.021374 0.000000
vn -0.999772 0.021375 -0.000001
vn -0.999772 0.021374 -0.000001
vn -0.999772 0.021373 0.000001
vn -0.999772 0.021374 0.000000
vn -0.999772 0.021373 0.000000
vn -0.999772 0.021373 0.000002
vn -0.999772 0.021375 -0.000001
vn -0.999772 0.021375 -0.000004
vn -0.999772 0.021372 0.000001
vn -0.999772 0.021374 0.000000
vn -0.999772 0.021373 -0.000000
vn -0.999772 0.021374 0.000000
vn -0.999772 0.021375 0.000001
vn -0.999772 0.021372 -0.000001
vn -0.999772 0.021375 0.000001
vn -0.999772 0.021373 -0.000001
vn -0.999772 0.021373 -0.000000
vn -0.999771 0.021375 0.000001
vn -0.999772 0.021372 -0.000001
vn -0.999772 0.021374 0.000000
vn -0.999772 0.021373 -0.000001
vn -0.999772 0.021374 0.000001
vn -0.999772 0.021374 0.000000
vn -0.999772 0.021374 0.000000
vn -0.999772 0.021374 0.000000
vn -0.999772 0.021373 -0.000000
vn -0.999772 0.021374 -0.000000
vn -0.999772 0.021373 -0.000000
vn -0.999772 0.021374 -0.000000
vn -0.999772 0.021374 0.000001
vn -0.999772 0.021373 -0.000001
vn -0.999772 0.021373 -0.000001
vn -0.999772 0.021375 0.000004
vn -0.999772 0.021372 -0.000006
vn -0.999772 0.021374 0.000003
vn -0.999772 0.021373 -0.000002
vn -0.999772 0.021374 0.000002
vn -0.999772 0.021374 -0.000000
vn -0.999772 0.021373 -0.000002
vn -0.999772 0.021375 0.000002
vn -0.999772 0.021374 0.000000
vn -0.999772 0.021373 -0.000001
vn -0.999772 0.021373 -0.000001
vn -0.999771 0.021373 -0.000001
vn -0.999772 0.021375 0.000002
vn -0.999772 0.021373 -0.000002
vn -0.999772 0.021374 0.000001
vn -0.999772 0.021373 -0.000000
vn -0.999772 0.021374 0.000000
vn -0.999772 0.021373 -0.000001
vn -0.999772 0.021374 0.000000
vn -0.999771 0.021374 0.000001
vn -0.999772 0.021374 0.000000
vn -0.999772 0.021374 0.000000
vn -0.999772 0.021373 -0.000001
vn -0.999772 0.021374 0.000000
vn -0.999772 0.021374 0.000000
vn -0.999772 0.021373 -0.000000
vn -0.999772 0.021374 0.000000
vn -0.999772 0.021373 -0.000001
vn -0.999772 0.021374 -0.000000
vn -0.999772 0.021373 -0.000001
vn -0.999772 0.021374 -0.000000
vn -0.999772 0.021374 0.000000
vn -0.999771 0.021374 -0.000000
vn -0.999772 0.021375 0.000001
vn -0.999772 0.021374 0.000001
vn -0.999772 0.021374 0.000000
vn -0.999772 0.021374 -0.000000
vn -0.999772 0.021372 -0.000001
vn -0.999772 0.021373 -0.000002
vn -0.999771 0.021377 0.000002
vn -0.999772 0.021375 0.000003
vn -0.999772 0.021372 -0.000001
vn -0.999772 0.021374 -0.000000
vn -0.999772 0.021374 0.000000
vn -0.999772 0.021372 0.000001
vn -0.999771 0.021377 -0.000002
vn -0.999772 0.021372 0.000001
vn -0.999772 0.021374 -0.000000
vn -0.999772 0.021375 -0.000001
vn -0.999772 0.021374 -0.000000
vn -0.999772 0.021373 0.000001
vn -0.999772 0.021373 0.000001
vn -0.999772 0.021373 0.000000
vn -0.999772 0.021374 -0.000000
vn -0.999772 0.021374 -0.000000
vn -0.999772 0.021374 -0.000001
vn -0.999772 0.021374 -0.000000
vn -0.999772 0.021373 0.000001
vn -0.999772 0.021374 -0.000000
vn -0.999772 0.021373 0.000000
vn -0.999772 0.021374 -0.000001
vn -0.999772 0.021373 0.000002
vn -0.999772 0.021375 -0.000002
vn -0.999772 0.021373 0.000001
vn -0.999772 0.021373 0.000001
vn -0.999772 0.021373 0.000001
vn -0.999772 0.021374 -0.000000
vn -0.999772 0.021375 -0.000002
vn -0.999772 0.021373 0.000002
vn -0.999772 0.021374 0.000000
vn -0.999772 0.021374 -0.000002
vn -0.999772 0.021373 0.000002
vn -0.999772 0.021374 -0.000003
vn -0.999772 0.021372 0.000006
vn -0.999772 0.021375 -0.000003
vn -0.999772 0.021373 0.000001
vn 0.046385 0.998924 0.000000
vn 0.046385 0.998924 0.000000
vn -0.040849 -0.999165 0.000000
vn -0.040849 -0.999165 -0.000000
vn 0.021367 0.999461 -0.024937
vn 0.021367 0.999461 -0.024938
vn 0.021314 0.996975 -0.074747
vn 0.021314 0.996980 -0.074682
vn 0.021208 0.992018 -0.124304
vn 0.021208 0.992009 -0.124368
vn 0.021049 0.984581 -0.173660
vn 0.021049 0.984592 -0.173598
vn 0.020838 0.974708 -0.222510
vn 0.020838 0.974708 -0.222511
vn 0.020260 0.947699 -0.318523
vn 0.020575 0.962404 -0.270843
vn 0.020575 0.962404 -0.270842
vn 0.020260 0.947698 -0.318524
vn 0.019896 0.930668 -0.365323
vn 0.019897 0.930690 -0.365267
vn 0.019482 0.911278 -0.411331
vn 0.019482 0.911278 -0.411331
vn 0.019020 0.889671 -0.456207
vn 0.019020 0.889671 -0.456206
vn 0.018510 0.865841 -0.499977
vn 0.018510 0.865813 -0.500026
vn 0.017354 0.811735 -0.583768
vn 0.017955 0.839849 -0.542523
vn 0.017955 0.839849 -0.542523
vn 0.016710 0.781648 -0.623496
vn 0.017354 0.811734 -0.583769
vn 0.016711 0.781679 -0.623456
vn 0.016026 0.749615 -0.661680
vn 0.016026 0.749615 -0.661680
vn 0.015301 0.715700 -0.698240
vn 0.015300 0.715668 -0.698273
vn 0.014538 0.680027 -0.733043
vn 0.014538 0.680027 -0.733043
vn 0.013739 0.642672 -0.766018
vn 0.013739 0.642641 -0.766044
vn 0.012905 0.603654 -0.797142
vn 0.012905 0.603654 -0.797142
vn 0.012040 0.563196 -0.826235
vn 0.012040 0.563196 -0.826236
vn 0.011145 0.521332 -0.853281
vn 0.010222 0.478120 -0.878235
vn 0.011145 0.521333 -0.853281
vn 0.010222 0.478119 -0.878235
vn 0.009274 0.433784 -0.900969
vn 0.009274 0.433784 -0.900969
vn 0.008302 0.388327 -0.921484
vn 0.008302 0.388350 -0.921475
vn 0.007311 0.341979 -0.939679
vn 0.007311 0.341958 -0.939687
vn 0.006300 0.294672 -0.955578
vn 0.006300 0.294672 -0.955578
vn 0.004235 0.198100 -0.980173
vn 0.005274 0.246704 -0.969077
vn 0.005274 0.246689 -0.969080
vn 0.004235 0.198113 -0.980170
vn 0.003186 0.149021 -0.988829
vn 0.003186 0.149012 -0.988830
vn 0.002128 0.099535 -0.995032
vn 0.002128 0.099541 -0.995031
vn 0.000000 0.000000 -1.000000
vn 0.001065 0.049838 -0.998757
vn 0.001065 0.049835 -0.998757
vn -0.001065 -0.049838 -0.998757
vn 0.000000 0.000000 -1.000000
vn -0.002128 -0.099541 -0.995031
vn -0.001065 -0.049838 -0.998757
vn -0.002128 -0.099535 -0.995032
vn -0.004235 -0.198113 -0.980170
vn -0.003186 -0.149012 -0.988830
vn -0.003186 -0.149021 -0.988829
vn -0.004235 -0.198100 -0.980173
vn -0.005274 -0.246689 -0.969080
vn -0.005274 -0.246704 -0.969077
vn -0.007311 -0.341979 -0.939679
vn -0.006300 -0.294672 -0.955578
vn -0.006300 -0.294672 -0.955578
vn -0.007311 -0.341958 -0.939687
vn -0.008302 -0.388326 -0.921484
vn -0.008302 -0.388349 -0.921475
vn -0.010222 -0.478120 -0.878235
vn -0.009274 -0.433784 -0.900969
vn -0.009274 -0.433784 -0.900969
vn -0.011145 -0.521332 -0.853281
vn -0.010222 -0.478119 -0.878235
vn -0.011145 -0.521332 -0.853281
vn -0.012040 -0.563196 -0.826235
vn -0.012905 -0.603654 -0.797142
vn -0.012040 -0.563196 -0.826236
vn -0.012905 -0.603654 -0.797142
vn -0.013739 -0.642672 -0.766018
vn -0.013739 -0.642641 -0.766045
vn -0.014537 -0.679995 -0.733073
vn -0.014538 -0.680027 -0.733043
vn -0.015301 -0.715700 -0.698240
vn -0.015301 -0.715700 -0.698240
vn -0.016711 -0.781679 -0.623457
vn -0.016026 -0.749615 -0.661680
vn -0.016026 -0.749615 -0.661680
vn -0.016710 -0.781648 -0.623496
vn -0.017955 -0.839849 -0.542523
vn -0.017354 -0.811734 -0.583769
vn -0.017354 -0.811734 -0.583769
vn -0.017955 -0.839849 -0.542523
vn -0.018510 -0.865813 -0.500026
vn -0.018510 -0.865841 -0.499977
vn -0.019020 -0.889671 -0.456207
vn -0.019019 -0.889645 -0.456257
vn -0.019482 -0.911277 -0.411332
vn -0.019482 -0.911302 -0.411278
vn -0.019897 -0.930690 -0.365267
vn -0.019896 -0.930668 -0.365323
vn -0.020260 -0.947699 -0.318523
vn -0.020260 -0.947699 -0.318523
vn -0.020575 -0.962404 -0.270843
vn -0.020575 -0.962404 -0.270843
vn -0.020838 -0.974708 -0.222511
vn -0.020838 -0.974708 -0.222510
vn -0.021049 -0.984581 -0.173659
vn -0.021049 -0.984592 -0.173597
vn -0.021208 -0.992018 -0.124304
vn -0.021208 -0.992010 -0.124367
vn -0.021314 -0.996975 -0.074747
vn -0.021314 -0.996975 -0.074748
vn -0.021367 -0.999461 -0.024937
vn -0.021367 -0.999462 -0.024873
vn -0.999787 0.020641 0.000552
vn -0.999782 0.020875 0.000694
vn -0.999773 0.021317 0.000040
vn -0.999770 0.021459 -0.000117
vn -0.999769 0.021514 -0.000199
vn -0.999773 0.021310 0.000085
vn -0.999773 0.021314 0.000080
vn -0.999768 0.021527 -0.000111
vn -0.999772 0.021367 -0.000002
vn -0.999771 0.021396 -0.000023
vn -0.999772 0.021337 0.000049
vn -0.999771 0.021420 -0.000007
vn -0.999775 0.021228 0.000390
vn -0.999770 0.021468 -0.000323
vn -0.999771 0.021375 -0.000001
vn -0.999783 0.020835 0.000150
vn -0.999760 0.021905 -0.000122
vn -0.999770 0.021469 -0.000031
vn -0.999772 0.021376 -0.000027
vn -0.999782 0.020894 0.000069
vn -0.999772 0.021358 0.000149
vn -0.999771 0.021399 0.000792
vn -0.999760 0.021900 0.000031
vn -0.999772 0.021369 -0.000170
vn -0.999772 0.021374 0.000025
vn -0.999771 0.021381 0.000058
vn -0.999775 0.021197 -0.000013
vn -0.999768 0.021546 0.000013
vn -0.999775 0.021214 -0.000012
vn -0.999770 0.021445 0.000005
vn -0.999770 0.021437 0.000004
vn -0.999760 0.021905 0.000122
vn -0.999772 0.021369 -0.000003
vn -0.999774 0.021258 -0.000008
vn -0.999771 0.021382 0.000001
vn -0.999770 0.021440 0.000189
vn -0.999774 0.021270 -0.000319
vn -0.999771 0.021395 0.000000
vn -0.999768 0.021559 0.000074
vn -0.999771 0.021420 0.000007
vn -0.999772 0.021351 -0.000054
vn -0.999766 0.021645 0.000517
vn -0.999772 0.021334 -0.000090
vn -0.999772 0.021372 -0.000002
vn -0.999771 0.021385 0.000034
vn -0.999772 0.021335 0.000000
vn -0.999772 0.021357 -0.000050
vn -0.999765 0.021673 0.000190
vn -0.999760 0.021881 0.000634
vn -0.999775 0.021189 -0.000234
vn -0.999763 0.021782 0.000423
vn -0.999772 0.021357 -0.000013
vn -0.999771 0.021380 0.000001
vn -0.999771 0.021411 -0.000006
vn -0.999773 0.021311 -0.000057
vn -0.999772 0.021373 -0.000000
vn -0.999772 0.021362 0.000001
vn -0.999766 0.021611 0.000221
vn -0.999767 0.021565 0.000177
vn -0.999773 0.021324 -0.000070
vn -0.999772 0.021375 -0.000000
vn -0.999772 0.021368 0.000001
vn -0.999760 0.021899 0.000657
vn -0.999786 0.020662 -0.000537
vn -0.999765 0.021670 0.000227
vn -0.999773 0.021330 -0.000044
vn -0.999772 0.021364 -0.000009
vn -0.999772 0.021375 0.000001
vn -0.999771 0.021400 0.000039
vn -0.999776 0.021171 -0.000353
vn -0.999772 0.021375 -0.000001
vn -0.999772 0.021374 -0.000001
vn -0.999771 0.021419 0.000075
vn -0.999769 0.021475 0.000185
vn -0.999763 0.021743 0.000795
vn -0.999773 0.021323 -0.000020
vn -0.999778 0.021092 -0.000104
vn -0.999772 0.021360 0.000003
vn -0.999775 0.021228 -0.000390
vn -0.999772 0.021371 0.000005
vn -0.999772 0.021335 -0.000008
vn -0.999773 0.021315 -0.000277
vn -0.999769 0.021479 0.000003
vn -0.999770 0.021452 0.000022
vn -0.999774 0.021278 -0.000027
vn -0.999772 0.021353 -0.000184
vn -0.999772 0.021348 -0.000253
vn -0.999771 0.021379 0.000003
vn -0.999771 0.021399 0.000272
vn -0.999760 0.021902 0.000000
vn -0.999778 0.021062 0.000000
vn -0.999778 0.021062 0.000000
vn -0.999772 0.021344 0.000308
vn -0.999771 0.021387 0.000002
vn -0.999770 0.021453 0.000000
vn -0.999772 0.021367 0.000004
vn -0.999772 0.021373 -0.000040
vn -0.999771 0.021415 -0.000233
vn -0.999770 0.021455 -0.000408
vn -0.999774 0.021277 0.000021
vn -0.999777 0.021135 0.000057
vn -0.999772 0.021377 0.000002
vn -0.999780 0.020981 0.000155
vn -0.999773 0.021289 0.000024
vn -0.999771 0.021388 -0.000020
vn -0.999773 0.021319 0.000143
vn -0.999775 0.021201 0.000404
vn -0.999770 0.021423 -0.000109
vn -0.999785 0.020717 0.000355
vn -0.999772 0.021369 -0.000000
vn -0.999772 0.021372 -0.000001
vn -0.999772 0.021355 0.000053
vn -0.999782 0.020875 0.000694
vn -0.999786 0.020662 0.000537
vn -0.999773 0.021325 0.000035
vn -0.999768 0.021525 -0.000209
vn -0.999772 0.021373 0.000000
vn -0.999771 0.021386 -0.000001
vn -0.999767 0.021589 -0.000155
vn -0.999772 0.021374 0.000000
vn -0.999772 0.021373 0.000005
vn -0.999771 0.021387 -0.000020
vn -0.999771 0.021383 -0.000034
vn -0.999774 0.021265 0.000134
f 1//1 2//1 3//1
f 3//2 2//2 4//2
f 2//3 5//3 4//3
f 4//4 5//4 6//4
f 5//5 7//5 6//5
f 6//6 7//6 8//6
f 7//7 9//7 8//7
f 8//8 9//8 10//8
f 9//9 11//9 10//9
f 10//10 11//10 12//10
f 11//11 13//11 12//11
f 12//12 13//12 14//12
f 13//13 15//13 14//13
f 14//14 15//14 16//14
f 15//15 17//15 16//15
f 16//16 17//16 18//16
f 17//17 19//17 18//17
f 18//18 19//18 20//18
f 19//19 21//19 20//19
f 20//20 21//20 22//20
f 21//21 23//21 22//21
f 22//22 23//22 24//22
f 24//23 25//23 26//23
f 23//24 25//24 24//24
f 26//25 27//25 28//25
f 25//26 27//26 26//26
f 28//27 29//27 30//27
f 27//28 29//28 28//28
f 30//29 31//29 32//29
f 29//30 31//30 30//30
f 32//31 33//31 34//31
f 31//32 33//32 32//32
f 34//33 35//33 36//33
f 33//34 35//34 34//34
f 35//35 37//35 36//35
f 36//36 37//36 38//36
f 37//37 39//37 38//37
f 38//38 39//38 40//38
f 39//39 41//39 40//39
f 40//40 41//40 42//40
f 41//41 43//41 42//41
f 42//42 43//42 44//42
f 43//43 45//43 44//43
f 44//44 45//44 46//44
f 45//45 47//45 46//45
f 46//46 47//46 48//46
f 47//47 49//47 48//47
f 48//48 49//48 50//48
f 49//49 51//49 50//49
f 50//50 51//50 52//50
f 51//51 53//51 52//51
f 52//52 53//52 54//52
f 53//53 55//53 54//53
f 54//54 55//54 56//54
f 55//55 57//55 56//55
f 56//56 57//56 58//56
f 57//57 59//57 58//57
f 58//58 59//58 60//58
f 59//59 61//59 60//59
f 60//60 61//60 62//60
f 61//61 63//61 62//61
f 62//62 63//62 64//62
f 63//63 65//63 64//63
f 64//64 65//64 66//64
f 65//65 67//65 66//65
f 66//66 67//66 68//66
f 67//67 69//67 68//67
f 68//68 69//68 70//68
f 69//69 71//69 70//69
f 70//70 71//70 72//70
f 72//71 73//71 74//71
f 71//72 73//72 72//72
f 74//73 75//73 76//73
f 73//74 75//74 74//74
f 76//75 77//75 78//75
f 75//76 77//76 76//76
f 78//77 79//77 80//77
f 77//78 79//78 78//78
f 80//79 81//79 82//79
f 79//80 81//80 80//80
f 82//81 83//81 84//81
f 81//82 83//82 82//82
f 84//83 85//83 86//83
f 83//84 85//84 84//84
f 85//85 87//85 86//85
f 86//86 87//86 88//86
f 87//87 89//87 88//87
f 88//88 89//88 90//88
f 89//89 91//89 90//89
f 90//90 91//90 92//90
f 92//91 93//91 94//91
f 91//92 93//92 92//92
f 94//93 95//93 96//93
f 93//94 95//94 94//94
f 96//95 97//95 98//95
f 95//96 97//96 96//96
f 98//97 99//97 100//97
f 97//98 99//98 98//98
f 100//99 101//99 102//99
f 99//100 101//100 100//100
f 102//101 103//101 104//101
f 101//102 103//102 102//102
f 104//103 105//103 106//103
f 103//104 105//104 104//104
f 106//105 107//105 108//105
f 105//106 107//106 106//106
f 108//107 109//107 110//107
f 107//108 109//108 108//108
f 110//109 111//109 112//109
f 109//110 111//110 110//110
f 112//111 113//111 114//111
f 111//112 113//112 112//112
f 114//113 115//113 116//113
f 113//114 115//114 114//114
f 116//115 117//115 118//115
f 115//116 117//116 116//116
f 118//117 119//117 120//117
f 117//118 119//118 118//118
f 120//119 121//119 122//119
f 119//120 121//120 120//120
f 122//121 123//121 124//121
f 121//122 123//122 122//122
f 124//123 125//123 126//123
f 123//124 125//124 124//124
f 125//125 127//125 126//125
f 126//126 127//126 128//126
f 129//127 130//127 131//127
f 132//128 129//128 131//128
f 132//129 131//129 133//129
f 134//130 132//130 133//130
f 135//131 134//131 133//131
f 135//132 136//132 137//132
f 135//133 133//133 136//133
f 138//134 135//134 137//134
f 139//135 138//135 137//135
f 139//136 140//136 141//136
f 139//137 137//137 140//137
f 142//138 139//138 141//138
f 143//139 141//139 144//139
f 143//140 142//140 141//140
f 145//141 143//141 144//141
f 145//142 144//142 146//142
f 147//143 146//143 148//143
f 147//144 145//144 146//144
f 149//145 150//145 151//145
f 149//146 148//146 150//146
f 149//147 147//147 148//147
f 152//148 151//148 153//148
f 152//149 149//149 151//149
f 154//150 152//150 153//150
f 155//151 156//151 157//151
f 155//152 153//152 156//152
f 155//153 154//153 153//153
f 158//154 155//154 157//154
f 159//155 157//155 160//155
f 159//156 158//156 157//156
f 161//157 160//157 162//157
f 161//158 159//158 160//158
f 163//159 164//159 165//159
f 163//160 162//160 164//160
f 163//161 161//161 162//161
f 166//162 163//162 165//162
f 167//163 166//163 165//163
f 167//164 165//164 168//164
f 169//165 167//165 168//165
f 169//166 168//166 170//166
f 171//167 169//167 170//167
f 171//168 172//168 173//168
f 171//169 170//169 172//169
f 174//170 171//170 173//170
f 175//171 174//171 173//171
f 175//172 173//172 176//172
f 177//173 175//173 176//173
f 177//174 176//174 178//174
f 179//175 177//175 178//175
f 179//176 178//176 180//176
f 181//177 180//177 182//177
f 181//178 179//178 180//178
f 183//179 184//179 185//179
f 183//180 182//180 184//180
f 183//181 181//181 182//181
f 186//182 183//182 185//182
f 187//183 188//183 189//183
f 187//184 185//184 188//184
f 187//185 186//185 185//185
f 190//186 187//186 189//186
f 191//187 189//187 192//187
f 191//188 190//188 189//188
f 193//189 192//189 194//189
f 193//190 191//190 192//190
f 195//191 196//191 197//191
f 195//192 194//192 196//192
f 195//193 193//193 194//193
f 198//194 197//194 199//194
f 198//195 195//195 197//195
f 200//196 198//196 199//196
f 201//197 199//197 202//197
f 201//198 200//198 199//198
f 203//199 204//199 205//199
f 203//200 202//200 204//200
f 203//201 201//201 202//201
f 206//202 203//202 205//202
f 207//203 208//203 209//203
f 207//204 205//204 208//204
f 207//205 206//205 205//205
f 210//206 207//206 209//206
f 211//207 209//207 212//207
f 211//208 210//208 209//208
f 213//209 212//209 214//209
f 213//210 211//210 212//210
f 215//211 213//211 214//211
f 215//212 214//212 216//212
f 217//213 215//213 216//213
f 217//214 216//214 218//214
f 219//215 217//215 218//215
f 219//216 218//216 220//216
f 221//217 219//217 220//217
f 221//218 220//218 222//218
f 223//219 221//219 222//219
f 223//220 224//220 225//220
f 223//221 222//221 224//221
f 226//222 225//222 227//222
f 226//223 223//223 225//223
f 228//224 226//224 227//224
f 229//225 230//225 231//225
f 229//226 227//226 230//226
f 229//227 228//227 227//227
f 232//228 229//228 231//228
f 233//229 231//229 234//229
f 233//230 232//230 231//230
f 235//231 234//231 236//231
f 235//232 233//232 234//232
f 237//233 236//233 238//233
f 237//234 235//234 236//234
f 239//235 238//235 240//235
f 239//236 237//236 238//236
f 241//237 240//237 242//237
f 241//238 239//238 240//238
f 243//239 242//239 244//239
f 243//240 241//240 242//240
f 245//241 244//241 246//241
f 245//242 243//242 244//242
f 247//243 246//243 248//243
f 247//244 245//244 246//244
f 249//245 248//245 250//245
f 249//246 247//246 248//246
f 251//247 250//247 252//247
f 251//248 249//248 250//248
f 253//249 252//249 254//249
f 253//250 251//250 252//250
f 255//251 254//251 256//251
f 255//252 253//252 254//252
f 127//253 257//253 128//253
f 128//254 257//254 258//254
f 257//255 259//255 258//255
f 258//256 259//256 260//256
f 259//257 261//257 260//257
f 260//258 261//258 262//258
f 261//259 263//259 262//259
f 262//260 263//260 264//260
f 263//261 265//261 264//261
f 264//262 265//262 266//262
f 265//263 267//263 266//263
f 266//264 267//264 268//264
f 267//265 269//265 268//265
f 268//266 269//266 270//266
f 269//267 271//267 270//267
f 270//268 271//268 272//268
f 271//269 273//269 272//269
f 272//270 273//270 274//270
f 274//271 275//271 276//271
f 273//272 275//272 274//272
f 276//273 277//273 278//273
f 275//274 277//274 276//274
f 278//275 279//275 280//275
f 277//276 279//276 278//276
f 280//277 281//277 282//277
f 279//278 281//278 280//278
f 282//279 283//279 284//279
f 281//280 283//280 282//280
f 284//281 285//281 286//281
f 283//282 285//282 284//282
f 286//283 287//283 288//283
f 285//284 287//284 286//284
f 288//285 289//285 290//285
f 287//286 289//286 288//286
f 289//287 291//287 290//287
f 290//288 291//288 292//288
f 291//289 293//289 292//289
f 292//290 293//290 294//290
f 293//291 295//291 294//291
f 294//292 295//292 296//292
f 295//293 297//293 296//293
f 296//294 297//294 298//294
f 297//295 299//295 298//295
f 298//296 299//296 300//296
f 299//297 301//297 300//297
f 300//298 301//298 302//298
f 301//299 303//299 302//299
f 302//300 303//300 304//300
f 303//301 305//301 304//301
f 304//302 305//302 306//302
f 305//303 307//303 306//303
f 306//304 307//304 308//304
f 307//305 309//305 308//305
f 308//306 309//306 310//306
f 309//307 311//307 310//307
f 310//308 311//308 312//308
f 311//309 313//309 312//309
f 312//310 313//310 314//310
f 313//311 315//311 314//311
f 314//312 315//312 316//312
f 315//313 317//313 316//313
f 316//314 317//314 318//314
f 317//315 319//315 318//315
f 318//316 319//316 320//316
f 319//317 321//317 320//317
f 320//318 321//318 322//318
f 321//319 323//319 322//319
f 322//320 323//320 324//320
f 323//321 325//321 324//321
f 324//322 325//322 326//322
f 325//323 327//323 326//323
f 326//324 327//324 328//324
f 328//325 329//325 330//325
f 327//326 329//326 328//326
f 330//327 331//327 332//327
f 329//328 331//328 330//328
f 332//329 333//329 334//329
f 331//330 333//330 332//330
f 334//331 335//331 336//331
f 336//332 335//332 337//332
f 333//333 335//333 334//333
f 335//334 338//334 337//334
f 337//335 339//335 340//335
f 338//336 339//336 337//336
f 339//337 341//337 340//337
f 340//338 341//338 342//338
f 341//339 343//339 342//339
f 342//340 343//340 344//340
f 344//341 345//341 346//341
f 343//342 345//342 344//342
f 346//343 347//343 348//343
f 345//344 347//344 346//344
f 348//345 349//345 350//345
f 347//346 349//346 348//346
f 350//347 351//347 352//347
f 349//348 351//348 350//348
f 352//349 353//349 354//349
f 351//350 353//350 352//350
f 354//351 355//351 356//351
f 353//352 355//352 354//352
f 356//353 357//353 358//353
f 355//354 357//354 356//354
f 358//355 359//355 360//355
f 357//356 359//356 358//356
f 360//357 361//357 362//357
f 359//358 361//358 360//358
f 362//359 363//359 364//359
f 361//360 363//360 362//360
f 364//361 365//361 366//361
f 363//362 365//362 364//362
f 366//363 367//363 368//363
f 365//364 367//364 366//364
f 368//365 369//365 370//365
f 367//366 369//366 368//366
f 370//367 371//367 372//367
f 369//368 371//368 370//368
f 372//369 373//369 374//369
f 371//370 373//370 372//370
f 374//371 375//371 376//371
f 373//372 375//372 374//372
f 376//373 377//373 378//373
f 375//374 377//374 376//374
f 378//375 379//375 380//375
f 380//376 379//376 3//376
f 377//377 379//377 378//377
f 379//378 1//378 3//378
f 381//379 33//379 382//379
f 33//380 31//380 382//380
f 381//381 35//381 33//381
f 31//382 29//382 382//382
f 381//383 37//383 35//383
f 29//384 27//384 382//384
f 381//385 39//385 37//385
f 27//386 25//386 382//386
f 381//387 41//387 39//387
f 25//388 23//388 382//388
f 381//389 43//389 41//389
f 23//390 21//390 382//390
f 381//391 45//391 43//391
f 21//392 19//392 382//392
f 381//393 47//393 45//393
f 19//394 17//394 382//394
f 381//395 49//395 47//395
f 17//396 15//396 382//396
f 381//397 51//397 49//397
f 15//398 13//398 382//398
f 381//399 53//399 51//399
f 13//400 11//400 382//400
f 381//401 55//401 53//401
f 11//402 9//402 382//402
f 381//403 57//403 55//403
f 9//404 7//404 382//404
f 381//405 59//405 57//405
f 7//406 5//406 382//406
f 381//407 61//407 59//407
f 5//408 2//408 382//408
f 383//409 63//409 381//409
f 381//410 63//410 61//410
f 382//411 1//411 384//411
f 2//412 1//412 382//412
f 383//413 65//413 63//413
f 384//414 379//414 385//414
f 1//415 379//415 384//415
f 383//416 67//416 65//416
f 385//417 377//417 386//417
f 379//418 377//418 385//418
f 383//419 69//419 67//419
f 386//420 375//420 387//420
f 377//421 375//421 386//421
f 383//422 71//422 69//422
f 387//423 373//423 388//423
f 375//424 373//424 387//424
f 383//425 73//425 71//425
f 388//426 371//426 389//426
f 373//427 371//427 388//427
f 383//428 75//428 73//428
f 389//429 369//429 390//429
f 371//430 369//430 389//430
f 383//431 77//431 75//431
f 390//432 367//432 391//432
f 369//433 367//433 390//433
f 383//434 79//434 77//434
f 367//435 365//435 391//435
f 391//436 365//436 392//436
f 383//437 81//437 79//437
f 392//438 363//438 393//438
f 365//439 363//439 392//439
f 383//440 83//440 81//440
f 393//441 361//441 394//441
f 363//442 361//442 393//442
f 383//443 85//443 83//443
f 394//444 359//444 395//444
f 361//445 359//445 394//445
f 383//446 87//446 85//446
f 395//447 357//447 396//447
f 359//448 357//448 395//448
f 383//449 89//449 87//449
f 396//450 355//450 397//450
f 357//451 355//451 396//451
f 383//452 91//452 89//452
f 397//453 353//453 398//453
f 355//454 353//454 397//454
f 383//455 93//455 91//455
f 398//456 351//456 399//456
f 353//457 351//457 398//457
f 383//458 95//458 93//458
f 351//459 349//459 399//459
f 349//460 400//460 399//460
f 349//461 347//461 400//461
f 347//462 401//462 400//462
f 345//463 401//463 347//463
f 345//464 402//464 401//464
f 343//465 402//465 345//465
f 343//466 403//466 402//466
f 341//467 403//467 343//467
f 341//468 404//468 403//468
f 339//469 404//469 341//469
f 339//470 405//470 404//470
f 338//471 405//471 339//471
f 335//472 406//472 338//472
f 338//473 406//473 405//473
f 333//474 407//474 335//474
f 335//475 407//475 406//475
f 333//476 408//476 407//476
f 331//477 408//477 333//477
f 329//478 409//478 331//478
f 331//479 409//479 408//479
f 329//480 410//480 409//480
f 327//481 410//481 329//481
f 327//482 411//482 410//482
f 325//483 411//483 327//483
f 325//484 412//484 411//484
f 323//485 412//485 325//485
f 323//486 413//486 412//486
f 321//487 413//487 323//487
f 321//488 414//488 413//488
f 319//489 414//489 321//489
f 319//490 415//490 414//490
f 317//491 415//491 319//491
f 123//492 416//492 125//492
f 121//493 416//493 123//493
f 119//494 416//494 121//494
f 117//495 416//495 119//495
f 115//496 416//496 117//496
f 113//497 416//497 115//497
f 111//498 416//498 113//498
f 109//499 416//499 111//499
f 107//500 416//500 109//500
f 105//501 416//501 107//501
f 103//502 416//502 105//502
f 101//503 416//503 103//503
f 99//504 416//504 101//504
f 97//505 416//505 99//505
f 95//506 416//506 97//506
f 383//507 416//507 95//507
f 416//508 417//508 125//508
f 125//509 417//509 127//509
f 315//510 418//510 317//510
f 317//511 418//511 415//511
f 417//512 419//512 127//512
f 127//513 419//513 257//513
f 313//514 420//514 315//514
f 315//515 420//515 418//515
f 419//516 421//516 257//516
f 257//517 421//517 259//517
f 311//518 422//518 313//518
f 313//519 422//519 420//519
f 421//520 423//520 259//520
f 259//521 423//521 261//521
f 309//522 424//522 311//522
f 311//523 424//523 422//523
f 261//524 425//524 263//524
f 423//525 425//525 261//525
f 307//526 426//526 309//526
f 309//527 426//527 424//527
f 263//528 427//528 265//528
f 425//529 427//529 263//529
f 305//530 428//530 307//530
f 307//531 428//531 426//531
f 427//532 429//532 265//532
f 265//533 429//533 267//533
f 303//534 430//534 305//534
f 305//535 430//535 428//535
f 267//536 431//536 269//536
f 429//537 431//537 267//537
f 301//538 432//538 303//538
f 303//539 432//539 430//539
f 269//540 433//540 271//540
f 431//541 433//541 269//541
f 299//542 434//542 301//542
f 301//543 434//543 432//543
f 271//544 435//544 273//544
f 433//545 435//545 271//545
f 297//546 436//546 299//546
f 299//547 436//547 434//547
f 435//548 437//548 273//548
f 273//549 437//549 275//549
f 295//550 438//550 297//550
f 297//551 438//551 436//551
f 275//552 439//552 277//552
f 437//553 439//553 275//553
f 293//554 440//554 295//554
f 295//555 440//555 438//555
f 277//556 441//556 279//556
f 439//557 441//557 277//557
f 291//558 442//558 293//558
f 293//559 442//559 440//559
f 279//560 443//560 281//560
f 441//561 443//561 279//561
f 289//562 444//562 291//562
f 291//563 444//563 442//563
f 281//564 445//564 283//564
f 443//565 445//565 281//565
f 287//566 446//566 289//566
f 289//567 446//567 444//567
f 283//568 447//568 285//568
f 445//569 447//569 283//569
f 285//570 448//570 287//570
f 287//571 448//571 446//571
f 447//572 448//572 285//572
f 34//573 449//573 450//573
f 32//574 34//574 450//574
f 36//575 449//575 34//575
f 30//576 32//576 450//576
f 38//577 449//577 36//577
f 28//578 30//578 450//578
f 40//579 449//579 38//579
f 26//580 28//580 450//580
f 42//581 449//581 40//581
f 24//582 26//582 450//582
f 44//583 449//583 42//583
f 22//584 24//584 450//584
f 46//585 449//585 44//585
f 20//586 22//586 450//586
f 48//587 449//587 46//587
f 18//588 20//588 450//588
f 50//589 449//589 48//589
f 16//590 18//590 450//590
f 52//591 449//591 50//591
f 14//592 16//592 450//592
f 54//593 449//593 52//593
f 12//594 14//594 450//594
f 56//595 449//595 54//595
f 10//596 12//596 450//596
f 58//597 449//597 56//597
f 8//598 10//598 450//598
f 60//599 449//599 58//599
f 6//600 8//600 450//600
f 62//601 449//601 60//601
f 4//602 6//602 450//602
f 64//603 451//603 449//603
f 64//604 449//604 62//604
f 3//605 450//605 452//605
f 3//606 4//606 450//606
f 66//607 451//607 64//607
f 380//608 452//608 453//608
f 380//609 3//609 452//609
f 68//610 451//610 66//610
f 378//611 453//611 454//611
f 378//612 380//612 453//612
f 70//613 451//613 68//613
f 376//614 454//614 455//614
f 376//615 378//615 454//615
f 72//616 451//616 70//616
f 374//617 455//617 456//617
f 374//618 376//618 455//618
f 74//619 451//619 72//619
f 372//620 456//620 457//620
f 372//621 374//621 456//621
f 76//622 451//622 74//622
f 370//623 457//623 458//623
f 370//624 372//624 457//624
f 78//625 451//625 76//625
f 368//626 370//626 458//626
f 368//627 458//627 459//627
f 80//628 451//628 78//628
f 366//629 459//629 460//629
f 366//630 368//630 459//630
f 82//631 451//631 80//631
f 364//632 460//632 461//632
f 364//633 366//633 460//633
f 84//634 451//634 82//634
f 362//635 461//635 462//635
f 362//636 364//636 461//636
f 86//637 451//637 84//637
f 360//638 462//638 463//638
f 360//639 362//639 462//639
f 88//640 451//640 86//640
f 358//641 463//641 464//641
f 358//642 360//642 463//642
f 90//643 451//643 88//643
f 356//644 464//644 465//644
f 356//645 358//645 464//645
f 92//646 451//646 90//646
f 354//647 465//647 466//647
f 354//648 356//648 465//648
f 94//649 451//649 92//649
f 352//650 466//650 467//650
f 352//651 354//651 466//651
f 96//652 451//652 94//652
f 350//653 352//653 467//653
f 468//654 350//654 467//654
f 348//655 350//655 468//655
f 469//656 346//656 348//656
f 469//657 348//657 468//657
f 470//658 344//658 346//658
f 470//659 346//659 469//659
f 471//660 342//660 344//660
f 471//661 344//661 470//661
f 472//662 340//662 342//662
f 472//663 342//663 471//663
f 473//664 337//664 340//664
f 473//665 340//665 472//665
f 474//666 336//666 337//666
f 474//667 337//667 473//667
f 475//668 334//668 336//668
f 475//669 336//669 474//669
f 476//670 332//670 334//670
f 476//671 334//671 475//671
f 477//672 330//672 332//672
f 477//673 332//673 476//673
f 478//674 328//674 330//674
f 478//675 330//675 477//675
f 479//676 326//676 328//676
f 479//677 328//677 478//677
f 480//678 326//678 479//678
f 480//679 324//679 326//679
f 481//680 322//680 324//680
f 481//681 324//681 480//681
f 482//682 320//682 322//682
f 482//683 322//683 481//683
f 483//684 320//684 482//684
f 483//685 318//685 320//685
f 484//686 451//686 96//686
f 484//687 96//687 98//687
f 484//688 98//688 100//688
f 484//689 100//689 102//689
f 484//690 102//690 104//690
f 484//691 104//691 106//691
f 484//692 106//692 108//692
f 484//693 108//693 110//693
f 484//694 110//694 112//694
f 484//695 112//695 114//695
f 484//696 114//696 116//696
f 484//697 116//697 118//697
f 484//698 118//698 120//698
f 484//699 120//699 122//699
f 484//700 122//700 124//700
f 484//701 124//701 126//701
f 485//702 484//702 126//702
f 485//703 126//703 128//703
f 486//704 318//704 483//704
f 486//705 316//705 318//705
f 487//706 128//706 258//706
f 487//707 485//707 128//707
f 488//708 316//708 486//708
f 488//709 314//709 316//709
f 489//710 487//710 258//710
f 489//711 258//711 260//711
f 490//712 314//712 488//712
f 490//713 312//713 314//713
f 491//714 489//714 260//714
f 491//715 260//715 262//715
f 492//716 312//716 490//716
f 492//717 310//717 312//717
f 493//718 491//718 262//718
f 493//719 262//719 264//719
f 494//720 310//720 492//720
f 494//721 308//721 310//721
f 495//722 493//722 264//722
f 495//723 264//723 266//723
f 496//724 308//724 494//724
f 496//725 306//725 308//725
f 497//726 495//726 266//726
f 497//727 266//727 268//727
f 498//728 306//728 496//728
f 498//729 304//729 306//729
f 499//730 497//730 268//730
f 499//731 268//731 270//731
f 500//732 304//732 498//732
f 500//733 302//733 304//733
f 501//734 499//734 270//734
f 501//735 270//735 272//735
f 502//736 302//736 500//736
f 502//737 300//737 302//737
f 503//738 501//738 272//738
f 503//739 272//739 274//739
f 504//740 300//740 502//740
f 504//741 298//741 300//741
f 505//742 503//742 274//742
f 505//743 274//743 276//743
f 506//744 298//744 504//744
f 506//745 296//745 298//745
f 507//746 505//746 276//746
f 507//747 276//747 278//747
f 508//748 296//748 506//748
f 508//749 294//749 296//749
f 509//750 278//750 280//750
f 509//751 507//751 278//751
f 510//752 294//752 508//752
f 510//753 292//753 294//753
f 511//754 280//754 282//754
f 511//755 509//755 280//755
f 512//756 292//756 510//756
f 512//757 290//757 292//757
f 513//758 511//758 282//758
f 513//759 282//759 284//759
f 514//760 290//760 512//760
f 514//761 288//761 290//761
f 515//762 513//762 284//762
f 515//763 284//763 286//763
f 516//764 288//764 514//764
f 516//765 515//765 286//765
f 516//766 286//766 288//766
f 451//767 416//767 383//767
f 451//768 484//768 416//768
f 419//769 417//769 485//769
f 419//770 485//770 487//770
f 421//771 419//771 487//771
f 421//772 487//772 489//772
f 423//773 421//773 489//773
f 423//774 489//774 491//774
f 425//775 423//775 491//775
f 425//776 491//776 493//776
f 427//777 425//777 493//777
f 427//778 493//778 495//778
f 429//779 495//779 497//779
f 429//780 427//780 495//780
f 431//781 497//781 499//781
f 431//782 429//782 497//782
f 433//783 501//783 503//783
f 433//784 499//784 501//784
f 433//785 431//785 499//785
f 435//786 433//786 503//786
f 437//787 503//787 505//787
f 437//788 435//788 503//788
f 439//789 507//789 509//789
f 439//790 505//790 507//790
f 439//791 437//791 505//791
f 441//792 439//792 509//792
f 443//793 509//793 511//793
f 443//794 441//794 509//794
f 445//795 511//795 513//795
f 445//796 443//796 511//796
f 447//797 513//797 515//797
f 447//798 445//798 513//798
f 448//799 515//799 516//799
f 448//800 447//800 515//800
f 446//801 514//801 512//801
f 446//802 516//802 514//802
f 446//803 448//803 516//803
f 444//804 446//804 512//804
f 442//805 444//805 512//805
f 442//806 510//806 508//806
f 442//807 512//807 510//807
f 440//808 442//808 508//808
f 438//809 440//809 508//809
f 438//810 508//810 506//810
f 436//811 438//811 506//811
f 436//812 506//812 504//812
f 434//813 436//813 504//813
f 434//814 504//814 502//814
f 432//815 434//815 502//815
f 432//816 502//816 500//816
f 430//817 432//817 500//817
f 430//818 500//818 498//818
f 428//819 430//819 498//819
f 428//820 498//820 496//820
f 426//821 496//821 494//821
f 426//822 428//822 496//822
f 424//823 494//823 492//823
f 424//824 426//824 494//824
f 422//825 424//825 492//825
f 422//826 492//826 490//826
f 420//827 490//827 488//827
f 420//828 422//828 490//828
f 418//829 488//829 486//829
f 418//830 420//830 488//830
f 415//831 486//831 483//831
f 415//832 418//832 486//832
f 414//833 483//833 482//833
f 414//834 415//834 483//834
f 413//835 482//835 481//835
f 413//836 414//836 482//836
f 412//837 481//837 480//837
f 412//838 413//838 481//838
f 411//839 480//839 479//839
f 411//840 412//840 480//840
f 410//841 478//841 477//841
f 410//842 479//842 478//842
f 410//843 411//843 479//843
f 409//844 410//844 477//844
f 408//845 476//845 475//845
f 408//846 477//846 476//846
f 408//847 409//847 477//847
f 407//848 475//848 474//848
f 407//849 408//849 475//849
f 406//850 407//850 474//850
f 405//851 406//851 474//851
f 405//852 474//852 473//852
f 404//853 405//853 473//853
f 404//854 473//854 472//854
f 403//855 404//855 472//855
f 403//856 472//856 471//856
f 402//857 403//857 471//857
f 402//858 471//858 470//858
f 401//859 402//859 470//859
f 401//860 470//860 469//860
f 400//861 469//861 468//861
f 400//862 401//862 469//862
f 399//863 400//863 468//863
f 399//864 468//864 467//864
f 398//865 467//865 466//865
f 398//866 399//866 467//866
f 397//867 466//867 465//867
f 397//868 398//868 466//868
f 396//869 465//869 464//869
f 396//870 397//870 465//870
f 395//871 464//871 463//871
f 395//872 396//872 464//872
f 394//873 463//873 462//873
f 394//874 395//874 463//874
f 393//875 462//875 461//875
f 393//876 394//876 462//876
f 392//877 461//877 460//877
f 392//878 393//878 461//878
f 391//879 460//879 459//879
f 391//880 392//880 460//880
f 390//881 459//881 458//881
f 390//882 391//882 459//882
f 389//883 458//883 457//883
f 389//884 390//884 458//884
f 388//885 456//885 455//885
f 388//886 457//886 456//886
f 388//887 389//887 457//887
f 387//888 388//888 455//888
f 386//889 455//889 454//889
f 386//890 387//890 455//890
f 385//891 453//891 452//891
f 385//892 454//892 453//892
f 385//893 386//893 454//893
f 384//894 385//894 452//894
f 450//895 449//895 381//895
f 450//896 381//896 382//896
f 517//897 518//897 381//897
f 519//898 381//898 518//898
f 520//899 517//899 381//899
f 521//900 381//900 519//900
f 522//901 520//901 381//901
f 523//902 381//902 521//902
f 524//903 522//903 381//903
f 525//904 381//904 523//904
f 526//905 524//905 381//905
f 527//906 381//906 525//906
f 528//907 526//907 381//907
f 529//908 381//908 527//908
f 530//909 528//909 381//909
f 531//910 381//910 529//910
f 532//911 530//911 381//911
f 533//912 381//912 531//912
f 534//913 532//913 381//913
f 535//914 381//914 533//914
f 536//915 534//915 381//915
f 537//916 381//916 535//916
f 538//917 536//917 381//917
f 539//918 381//918 537//918
f 540//919 538//919 381//919
f 541//920 381//920 539//920
f 542//921 540//921 381//921
f 543//922 381//922 541//922
f 544//923 542//923 381//923
f 545//924 381//924 543//924
f 546//925 544//925 381//925
f 547//926 381//926 545//926
f 130//927 546//927 381//927
f 449//928 150//928 148//928
f 449//929 148//929 146//929
f 449//930 146//930 144//930
f 449//931 144//931 141//931
f 449//932 141//932 140//932
f 449//933 140//933 137//933
f 449//934 137//934 136//934
f 449//935 136//935 133//935
f 449//936 133//936 131//936
f 449//937 131//937 130//937
f 449//938 130//938 381//938
f 151//939 150//939 449//939
f 153//940 151//940 449//940
f 156//941 153//941 449//941
f 157//942 156//942 449//942
f 160//943 157//943 449//943
f 162//944 160//944 449//944
f 164//945 162//945 449//945
f 165//946 164//946 449//946
f 168//947 165//947 449//947
f 170//948 168//948 449//948
f 172//949 170//949 449//949
f 383//950 547//950 548//950
f 383//951 548//951 549//951
f 383//952 549//952 550//952
f 383//953 550//953 551//953
f 383//954 551//954 552//954
f 383//955 552//955 553//955
f 383//956 553//956 554//956
f 383//957 554//957 555//957
f 383//958 555//958 556//958
f 383//959 556//959 557//959
f 383//960 557//960 558//960
f 383//961 558//961 559//961
f 383//962 559//962 560//962
f 383//963 560//963 561//963
f 383//964 561//964 562//964
f 383//965 562//965 563//965
f 383//966 563//966 564//966
f 383//967 564//967 565//967
f 383//968 565//968 566//968
f 383//969 566//969 567//969
f 383//970 567//970 568//970
f 383//971 568//971 569//971
f 383//972 381//972 547//972
f 173//973 172//973 449//973
f 570//974 383//974 569//974
f 176//975 173//975 449//975
f 571//976 383//976 570//976
f 178//977 176//977 449//977
f 572//978 383//978 571//978
f 180//979 178//979 449//979
f 573//980 383//980 572//980
f 182//981 180//981 449//981
f 574//982 383//982 573//982
f 184//983 182//983 449//983
f 575//984 383//984 574//984
f 185//985 184//985 449//985
f 576//986 383//986 575//986
f 188//987 185//987 449//987
f 577//988 383//988 576//988
f 189//989 188//989 449//989
f 578//990 383//990 577//990
f 192//991 189//991 449//991
f 256//992 383//992 578//992
f 451//993 192//993 449//993
f 451//994 383//994 256//994
f 451//995 256//995 254//995
f 451//996 254//996 252//996
f 451//997 252//997 250//997
f 451//998 250//998 248//998
f 451//999 248//999 246//999
f 451//1000 246//1000 244//1000
f 451//1001 244//1001 242//1001
f 451//1002 242//1002 240//1002
f 451//1003 240//1003 238//1003
f 451//1004 238//1004 236//1004
f 451//1005 236//1005 234//1005
f 451//1006 234//1006 231//1006
f 451//1007 231//1007 230//1007
f 451//1008 230//1008 227//1008
f 451//1009 227//1009 225//1009
f 451//1010 225//1010 224//1010
f 451//1011 224//1011 222//1011
f 451//1012 222//1012 220//1012
f 451//1013 220//1013 218//1013
f 451//1014 218//1014 216//1014
f 451//1015 216//1015 214//1015
f 451//1016 214//1016 212//1016
f 451//1017 212//1017 209//1017
f 451//1018 209//1018 208//1018
f 451//1019 208//1019 205//1019
f 451//1020 205//1020 204//1020
f 451//1021 204//1021 202//1021
f 451//1022 202//1022 199//1022
f 451//1023 199//1023 197//1023
f 451//1024 197//1024 196//1024
f 451//1025 196//1025 194//1025
f 451//1026 194//1026 192//1026
f 485//1027 417//1027 416//1027
f 484//1028 485//1028 416//1028
f 452//1029 450//1029 382//1029
f 452//1030 382//1030 384//1030
f 255//1031 256//1031 578//1031
f 579//1032 255//1032 578//1032
f 580//1033 579//1033 578//1033
f 580//1034 578//1034 577//1034
f 581//1035 580//1035 577//1035
f 581//1036 577//1036 576//1036
f 582//1037 581//1037 576//1037
f 582//1038 576//1038 575//1038
f 583//1039 582//1039 575//1039
f 583//1040 575//1040 574//1040
f 584//1041 573//1041 572//1041
f 584//1042 574//1042 573//1042
f 584//1043 583//1043 574//1043
f 585//1044 584//1044 572//1044
f 586//1045 572//1045 571//1045
f 586//1046 585//1046 572//1046
f 587//1047 571//1047 570//1047
f 587//1048 586//1048 571//1048
f 588//1049 570//1049 569//1049
f 588//1050 587//1050 570//1050
f 589//1051 569//1051 568//1051
f 589//1052 588//1052 569//1052
f 590//1053 567//1053 566//1053
f 590//1054 568//1054 567//1054
f 590//1055 589//1055 568//1055
f 591//1056 566//1056 565//1056
f 591//1057 590//1057 566//1057
f 592//1058 591//1058 565//1058
f 593//1059 565//1059 564//1059
f 593//1060 592//1060 565//1060
f 594//1061 564//1061 563//1061
f 594//1062 593//1062 564//1062
f 595//1063 563//1063 562//1063
f 595//1064 594//1064 563//1064
f 596//1065 595//1065 562//1065
f 596//1066 562//1066 561//1066
f 597//1067 596//1067 561//1067
f 597//1068 561//1068 560//1068
f 598//1069 597//1069 560//1069
f 598//1070 560//1070 559//1070
f 599//1071 598//1071 559//1071
f 599//1072 558//1072 557//1072
f 599//1073 559//1073 558//1073
f 600//1074 599//1074 557//1074
f 600//1075 557//1075 556//1075
f 601//1076 600//1076 556//1076
f 602//1077 601//1077 556//1077
f 602//1078 556//1078 555//1078
f 603//1079 602//1079 555//1079
f 603//1080 555//1080 554//1080
f 604//1081 603//1081 554//1081
f 604//1082 554//1082 553//1082
f 605//1083 552//1083 551//1083
f 605//1084 553//1084 552//1084
f 605//1085 604//1085 553//1085
f 606//1086 605//1086 551//1086
f 607//1087 551//1087 550//1087
f 607//1088 606//1088 551//1088
f 608//1089 550//1089 549//1089
f 608//1090 607//1090 550//1090
f 609//1091 548//1091 547//1091
f 609//1092 549//1092 548//1092
f 609//1093 608//1093 549//1093
f 610//1094 547//1094 545//1094
f 610//1095 609//1095 547//1095
f 611//1096 545//1096 543//1096
f 611//1097 610//1097 545//1097
f 612//1098 611//1098 543//1098
f 613//1099 541//1099 539//1099
f 613//1100 543//1100 541//1100
f 613//1101 612//1101 543//1101
f 614//1102 613//1102 539//1102
f 615//1103 539//1103 537//1103
f 615//1104 614//1104 539//1104
f 616//1105 535//1105 533//1105
f 616//1106 537//1106 535//1106
f 616//1107 615//1107 537//1107
f 617//1108 616//1108 533//1108
f 618//1109 533//1109 531//1109
f 618//1110 617//1110 533//1110
f 619//1111 529//1111 527//1111
f 619//1112 531//1112 529//1112
f 619//1113 618//1113 531//1113
f 620//1114 527//1114 525//1114
f 620//1115 619//1115 527//1115
f 621//1116 620//1116 525//1116
f 622//1117 621//1117 525//1117
f 622//1118 523//1118 521//1118
f 622//1119 525//1119 523//1119
f 623//1120 622//1120 521//1120
f 623//1121 521//1121 519//1121
f 624//1122 623//1122 519//1122
f 624//1123 519//1123 518//1123
f 625//1124 624//1124 518//1124
f 626//1125 518//1125 517//1125
f 626//1126 625//1126 518//1126
f 627//1127 520//1127 522//1127
f 627//1128 517//1128 520//1128
f 627//1129 626//1129 517//1129
f 628//1130 627//1130 522//1130
f 629//1131 524//1131 526//1131
f 629//1132 522//1132 524//1132
f 629//1133 628//1133 522//1133
f 630//1134 629//1134 526//1134
f 631//1135 526//1135 528//1135
f 631//1136 630//1136 526//1136
f 632//1137 528//1137 530//1137
f 632//1138 631//1138 528//1138
f 633//1139 530//1139 532//1139
f 633//1140 632//1140 530//1140
f 634//1141 532//1141 534//1141
f 634//1142 633//1142 532//1142
f 635//1143 534//1143 536//1143
f 635//1144 634//1144 534//1144
f 636//1145 536//1145 538//1145
f 636//1146 635//1146 536//1146
f 637//1147 538//1147 540//1147
f 637//1148 636//1148 538//1148
f 638//1149 540//1149 542//1149
f 638//1150 637//1150 540//1150
f 639//1151 542//1151 544//1151
f 639//1152 638//1152 542//1152
f 640//1153 544//1153 546//1153
f 640//1154 639//1154 544//1154
f 129//1155 546//1155 130//1155
f 129//1156 640//1156 546//1156
f 158//1157 154//1157 155//1157
f 167//1158 169//1158 166//1158
f 158//1159 152//1159 154//1159
f 169//1160 171//1160 166//1160
f 166//1161 171//1161 163//1161
f 163//1162 171//1162 161//1162
f 161//1163 171//1163 159//1163
f 158//1164 149//1164 152//1164
f 159//1165 149//1165 158//1165
f 171//1166 149//1166 159//1166
f 174//1167 175//1167 171//1167
f 149//1168 145//1168 147//1168
f 179//1169 181//1169 177//1169
f 181//1170 183//1170 177//1170
f 145//1171 138//1171 143//1171
f 143//1172 138//1172 142//1172
f 142//1173 138//1173 139//1173
f 149//1174 138//1174 145//1174
f 183//1175 186//1175 177//1175
f 138//1176 134//1176 135//1176
f 187//1177 190//1177 186//1177
f 193//1178 195//1178 191//1178
f 129//1179 639//1179 640//1179
f 191//1180 198//1180 190//1180
f 190//1181 198//1181 186//1181
f 195//1182 198//1182 191//1182
f 132//1183 638//1183 129//1183
f 129//1184 638//1184 639//1184
f 132//1185 637//1185 638//1185
f 132//1186 635//1186 637//1186
f 134//1187 635//1187 132//1187
f 637//1188 635//1188 636//1188
f 138//1189 635//1189 134//1189
f 138//1190 634//1190 635//1190
f 149//1191 634//1191 138//1191
f 206//1192 207//1192 203//1192
f 203//1193 207//1193 201//1193
f 149//1194 631//1194 634//1194
f 634//1195 631//1195 633//1195
f 633//1196 631//1196 632//1196
f 207//1197 213//1197 201//1197
f 211//1198 213//1198 210//1198
f 210//1199 213//1199 207//1199
f 201//1200 213//1200 200//1200
f 200//1201 213//1201 198//1201
f 149//1202 630//1202 631//1202
f 213//1203 215//1203 198//1203
f 630//1204 628//1204 629//1204
f 219//1205 221//1205 217//1205
f 217//1206 221//1206 215//1206
f 223//1207 226//1207 221//1207
f 221//1208 226//1208 215//1208
f 149//1209 624//1209 630//1209
f 177//1210 624//1210 175//1210
f 630//1211 624//1211 628//1211
f 171//1212 624//1212 149//1212
f 175//1213 624//1213 171//1213
f 628//1214 624//1214 627//1214
f 627//1215 624//1215 626//1215
f 626//1216 624//1216 625//1216
f 177//1217 622//1217 624//1217
f 186//1218 622//1218 177//1218
f 624//1219 622//1219 623//1219
f 229//1220 232//1220 228//1220
f 228//1221 232//1221 226//1221
f 226//1222 232//1222 215//1222
f 232//1223 233//1223 215//1223
f 215//1224 233//1224 198//1224
f 233//1225 235//1225 198//1225
f 621//1226 619//1226 620//1226
f 198//1227 617//1227 186//1227
f 186//1228 617//1228 622//1228
f 621//1229 617//1229 619//1229
f 622//1230 617//1230 621//1230
f 619//1231 617//1231 618//1231
f 241//1232 243//1232 239//1232
f 239//1233 243//1233 237//1233
f 198//1234 615//1234 617//1234
f 617//1235 615//1235 616//1235
f 243//1236 245//1236 237//1236
f 245//1237 247//1237 237//1237
f 615//1238 613//1238 614//1238
f 249//1239 251//1239 247//1239
f 237//1240 251//1240 235//1240
f 247//1241 251//1241 237//1241
f 613//1242 610//1242 612//1242
f 612//1243 610//1243 611//1243
f 615//1244 609//1244 613//1244
f 613//1245 609//1245 610//1245
f 255//1246 579//1246 253//1246
f 253//1247 579//1247 251//1247
f 579//1248 580//1248 251//1248
f 609//1249 607//1249 608//1249
f 251//1250 581//1250 235//1250
f 580//1251 581//1251 251//1251
f 609//1252 604//1252 607//1252
f 615//1253 604//1253 609//1253
f 607//1254 604//1254 606//1254
f 606//1255 604//1255 605//1255
f 583//1256 584//1256 582//1256
f 582//1257 584//1257 581//1257
f 584//1258 585//1258 581//1258
f 586//1259 587//1259 585//1259
f 585//1260 587//1260 581//1260
f 604//1261 600//1261 603//1261
f 603//1262 600//1262 602//1262
f 602//1263 600//1263 601//1263
f 604//1264 599//1264 600//1264
f 588//1265 589//1265 587//1265
f 587//1266 589//1266 581//1266
f 581//1267 589//1267 235//1267
f 604//1268 598//1268 599//1268
f 598//1269 596//1269 597//1269
f 591//1270 592//1270 590//1270
f 590//1271 592//1271 589//1271
f 598//1272 595//1272 596//1272
f 235//1273 593//1273 198//1273
f 589//1274 593//1274 235//1274
f 592//1275 593//1275 589//1275
f 198//1276 593//1276 615//1276
f 615//1277 594//1277 604//1277
f 604//1278 594//1278 598//1278
f 593//1279 594//1279 615//1279
f 598//1280 594//1280 595//1280
